<svg width="864" height="308" viewBox="0 0 864 308" fill="none" xmlns="http://www.w3.org/2000/svg">
<path d="M182.709 208V135.273H214.243C219.783 135.273 224.435 136.018 228.199 137.51C231.987 139.001 234.84 141.108 236.757 143.831C238.699 146.554 239.669 149.761 239.669 153.455C239.669 156.13 239.077 158.568 237.894 160.77C236.734 162.972 235.1 164.818 232.993 166.31C230.886 167.777 228.424 168.795 225.607 169.364V170.074C228.732 170.192 231.573 170.985 234.129 172.453C236.686 173.897 238.722 175.898 240.237 178.455C241.753 180.988 242.51 183.971 242.51 187.403C242.51 191.381 241.468 194.92 239.385 198.021C237.325 201.123 234.39 203.561 230.578 205.337C226.767 207.112 222.221 208 216.942 208H182.709ZM202.453 192.233H211.686C215.001 192.233 217.486 191.617 219.144 190.386C220.801 189.132 221.629 187.285 221.629 184.847C221.629 183.142 221.239 181.698 220.458 180.514C219.676 179.33 218.564 178.431 217.119 177.815C215.699 177.2 213.983 176.892 211.97 176.892H202.453V192.233ZM202.453 164.676H210.55C212.278 164.676 213.805 164.404 215.131 163.859C216.457 163.315 217.486 162.534 218.22 161.516C218.978 160.474 219.357 159.207 219.357 157.716C219.357 155.467 218.552 153.75 216.942 152.567C215.332 151.359 213.296 150.756 210.834 150.756H202.453V164.676ZM254.79 208V153.455H274.392V208H254.79ZM264.591 147.773C261.94 147.773 259.667 146.897 257.773 145.145C255.879 143.393 254.932 141.286 254.932 138.824C254.932 136.362 255.879 134.255 257.773 132.503C259.667 130.751 261.94 129.875 264.591 129.875C267.266 129.875 269.539 130.751 271.409 132.503C273.303 134.255 274.25 136.362 274.25 138.824C274.25 141.286 273.303 143.393 271.409 145.145C269.539 146.897 267.266 147.773 264.591 147.773ZM315.658 229.591C310.189 229.591 305.502 228.81 301.596 227.247C297.713 225.708 294.695 223.578 292.54 220.855C290.41 218.156 289.214 215.055 288.954 211.551H307.846C308.035 212.711 308.509 213.646 309.266 214.357C310.024 215.067 310.994 215.576 312.178 215.884C313.385 216.215 314.735 216.381 316.226 216.381C318.76 216.381 320.855 215.765 322.512 214.534C324.193 213.303 325.033 211.078 325.033 207.858V198.625H324.465C323.755 200.472 322.666 202.046 321.198 203.348C319.73 204.626 317.966 205.609 315.907 206.295C313.847 206.958 311.586 207.29 309.124 207.29C305.242 207.29 301.667 206.39 298.4 204.591C295.156 202.792 292.552 199.939 290.587 196.033C288.646 192.126 287.675 187.025 287.675 180.727C287.675 174.146 288.693 168.795 290.729 164.676C292.789 160.557 295.44 157.538 298.684 155.621C301.951 153.703 305.384 152.744 308.982 152.744C311.681 152.744 314.048 153.218 316.084 154.165C318.12 155.088 319.825 156.331 321.198 157.893C322.571 159.432 323.613 161.125 324.323 162.972H324.749V153.455H344.351V207.858C344.351 212.474 343.156 216.393 340.765 219.612C338.397 222.856 335.059 225.33 330.751 227.034C326.442 228.739 321.411 229.591 315.658 229.591ZM316.368 193.369C318.168 193.369 319.706 192.872 320.985 191.878C322.287 190.86 323.281 189.416 323.968 187.545C324.678 185.652 325.033 183.379 325.033 180.727C325.033 178.028 324.678 175.72 323.968 173.803C323.281 171.861 322.287 170.382 320.985 169.364C319.706 168.322 318.168 167.801 316.368 167.801C314.569 167.801 313.03 168.322 311.752 169.364C310.497 170.382 309.527 171.861 308.84 173.803C308.177 175.72 307.846 178.028 307.846 180.727C307.846 183.426 308.177 185.723 308.84 187.616C309.527 189.487 310.497 190.919 311.752 191.913C313.03 192.884 314.569 193.369 316.368 193.369ZM383.959 208V135.273H415.351C420.749 135.273 425.472 136.255 429.52 138.22C433.568 140.185 436.717 143.014 438.966 146.707C441.215 150.401 442.34 154.828 442.34 159.989C442.34 165.197 441.18 169.589 438.86 173.163C436.563 176.738 433.332 179.437 429.165 181.26C425.022 183.083 420.181 183.994 414.641 183.994H395.891V168.653H410.664C412.984 168.653 414.96 168.369 416.594 167.801C418.251 167.209 419.518 166.274 420.394 164.996C421.293 163.717 421.743 162.048 421.743 159.989C421.743 157.905 421.293 156.213 420.394 154.911C419.518 153.585 418.251 152.614 416.594 151.999C414.96 151.359 412.984 151.04 410.664 151.04H403.703V208H383.959ZM426.573 174.619L444.754 208H423.306L405.55 174.619H426.573ZM481.004 208.994C475.181 208.994 470.162 207.882 465.948 205.656C461.757 203.407 458.526 200.187 456.253 195.997C454.004 191.783 452.879 186.741 452.879 180.869C452.879 175.235 454.016 170.311 456.289 166.097C458.561 161.883 461.769 158.604 465.912 156.26C470.055 153.916 474.944 152.744 480.578 152.744C484.698 152.744 488.426 153.384 491.764 154.662C495.102 155.94 497.955 157.799 500.323 160.237C502.69 162.652 504.513 165.588 505.791 169.044C507.07 172.5 507.709 176.395 507.709 180.727V185.273H458.987V174.477H489.669C489.646 172.915 489.243 171.542 488.462 170.358C487.704 169.151 486.674 168.215 485.372 167.553C484.094 166.866 482.638 166.523 481.004 166.523C479.418 166.523 477.962 166.866 476.637 167.553C475.311 168.215 474.245 169.139 473.441 170.322C472.659 171.506 472.245 172.891 472.198 174.477V186.125C472.198 187.877 472.565 189.439 473.298 190.812C474.032 192.186 475.086 193.263 476.459 194.044C477.832 194.825 479.489 195.216 481.431 195.216C482.78 195.216 484.011 195.027 485.124 194.648C486.26 194.269 487.231 193.724 488.036 193.014C488.841 192.28 489.432 191.404 489.811 190.386H507.709C507.093 194.174 505.637 197.465 503.341 200.259C501.045 203.028 498.003 205.183 494.215 206.722C490.45 208.237 486.047 208.994 481.004 208.994ZM535.907 208.852C532.427 208.852 529.349 208.284 526.674 207.148C524.022 205.988 521.939 204.236 520.424 201.892C518.909 199.548 518.151 196.565 518.151 192.943C518.151 189.96 518.66 187.415 519.678 185.308C520.696 183.178 522.117 181.438 523.939 180.088C525.762 178.739 527.881 177.709 530.296 176.999C532.734 176.288 535.362 175.827 538.18 175.614C541.233 175.377 543.684 175.093 545.53 174.761C547.401 174.406 548.75 173.921 549.579 173.305C550.407 172.666 550.822 171.826 550.822 170.784V170.642C550.822 169.222 550.277 168.133 549.188 167.375C548.099 166.617 546.702 166.239 544.998 166.239C543.127 166.239 541.6 166.653 540.417 167.482C539.257 168.286 538.558 169.529 538.322 171.21H520.282C520.519 167.896 521.572 164.842 523.442 162.048C525.336 159.231 528.094 156.982 531.716 155.301C535.339 153.597 539.86 152.744 545.282 152.744C549.188 152.744 552.692 153.206 555.793 154.129C558.894 155.029 561.534 156.295 563.712 157.929C565.89 159.539 567.547 161.433 568.684 163.611C569.844 165.765 570.424 168.109 570.424 170.642V208H552.1V200.33H551.674C550.585 202.366 549.259 204.011 547.697 205.266C546.158 206.52 544.394 207.432 542.405 208C540.44 208.568 538.274 208.852 535.907 208.852ZM542.299 196.494C543.79 196.494 545.187 196.187 546.489 195.571C547.815 194.955 548.892 194.068 549.721 192.908C550.549 191.748 550.964 190.339 550.964 188.682V184.136C550.443 184.349 549.886 184.551 549.295 184.74C548.726 184.929 548.111 185.107 547.448 185.273C546.809 185.438 546.122 185.592 545.388 185.734C544.678 185.876 543.932 186.007 543.151 186.125C541.636 186.362 540.393 186.752 539.422 187.297C538.475 187.818 537.765 188.469 537.292 189.25C536.842 190.008 536.617 190.86 536.617 191.807C536.617 193.322 537.15 194.482 538.215 195.287C539.28 196.092 540.642 196.494 542.299 196.494ZM634.648 171.21H616.608C616.513 170.098 616.123 169.139 615.436 168.334C614.75 167.529 613.862 166.913 612.773 166.487C611.708 166.037 610.524 165.812 609.222 165.812C607.541 165.812 606.097 166.12 604.889 166.736C603.682 167.351 603.09 168.227 603.114 169.364C603.09 170.169 603.433 170.914 604.144 171.601C604.878 172.287 606.286 172.82 608.369 173.199L619.449 175.188C625.036 176.205 629.191 177.922 631.914 180.337C634.66 182.728 636.045 185.936 636.068 189.96C636.045 193.843 634.885 197.216 632.588 200.081C630.316 202.922 627.202 205.124 623.249 206.686C619.319 208.225 614.833 208.994 609.79 208.994C601.457 208.994 594.934 207.29 590.223 203.881C585.536 200.472 582.92 195.973 582.375 190.386H601.835C602.096 192.115 602.948 193.452 604.392 194.399C605.86 195.322 607.707 195.784 609.932 195.784C611.731 195.784 613.211 195.476 614.371 194.861C615.555 194.245 616.158 193.369 616.182 192.233C616.158 191.191 615.637 190.363 614.619 189.747C613.625 189.132 612.063 188.634 609.932 188.256L600.273 186.551C594.709 185.58 590.543 183.734 587.773 181.011C585.003 178.289 583.63 174.785 583.654 170.5C583.63 166.712 584.624 163.504 586.637 160.876C588.673 158.225 591.573 156.213 595.337 154.839C599.125 153.443 603.611 152.744 608.796 152.744C616.679 152.744 622.894 154.378 627.439 157.645C632.008 160.912 634.411 165.434 634.648 171.21ZM674.857 208.994C668.939 208.994 663.873 207.822 659.659 205.479C655.445 203.111 652.213 199.821 649.964 195.607C647.715 191.369 646.59 186.456 646.59 180.869C646.59 175.282 647.715 170.382 649.964 166.168C652.213 161.93 655.445 158.639 659.659 156.295C663.873 153.928 668.939 152.744 674.857 152.744C680.776 152.744 685.842 153.928 690.056 156.295C694.27 158.639 697.502 161.93 699.751 166.168C702 170.382 703.124 175.282 703.124 180.869C703.124 186.456 702 191.369 699.751 195.607C697.502 199.821 694.27 203.111 690.056 205.479C685.842 207.822 680.776 208.994 674.857 208.994ZM674.999 194.506C676.657 194.506 678.089 193.949 679.296 192.837C680.504 191.724 681.439 190.138 682.102 188.078C682.765 186.018 683.096 183.568 683.096 180.727C683.096 177.863 682.765 175.412 682.102 173.376C681.439 171.317 680.504 169.731 679.296 168.618C678.089 167.505 676.657 166.949 674.999 166.949C673.248 166.949 671.744 167.505 670.49 168.618C669.235 169.731 668.276 171.317 667.613 173.376C666.95 175.412 666.619 177.863 666.619 180.727C666.619 183.568 666.95 186.018 667.613 188.078C668.276 190.138 669.235 191.724 670.49 192.837C671.744 193.949 673.248 194.506 674.999 194.506ZM735.681 177.318V208H716.079V153.455H734.687V163.824H735.255C736.439 160.367 738.522 157.657 741.505 155.692C744.512 153.727 748.016 152.744 752.017 152.744C755.875 152.744 759.225 153.632 762.066 155.408C764.931 157.16 767.144 159.574 768.707 162.652C770.293 165.73 771.074 169.245 771.051 173.199V208H751.448V177.318C751.472 174.619 750.785 172.5 749.389 170.962C748.016 169.423 746.098 168.653 743.636 168.653C742.026 168.653 740.617 169.009 739.41 169.719C738.226 170.405 737.315 171.4 736.676 172.702C736.036 173.98 735.705 175.519 735.681 177.318ZM801.921 135.273V143.795C801.921 146.116 801.447 148.436 800.5 150.756C799.577 153.052 798.393 155.195 796.949 157.183C795.529 159.148 794.061 160.794 792.546 162.119L784.449 158C785.443 156.295 786.331 154.319 787.112 152.07C787.894 149.821 788.284 147.062 788.284 143.795V135.273H801.921ZM860.019 171.21H841.979C841.885 170.098 841.494 169.139 840.807 168.334C840.121 167.529 839.233 166.913 838.144 166.487C837.079 166.037 835.895 165.812 834.593 165.812C832.912 165.812 831.468 166.12 830.26 166.736C829.053 167.351 828.461 168.227 828.485 169.364C828.461 170.169 828.805 170.914 829.515 171.601C830.249 172.287 831.657 172.82 833.741 173.199L844.82 175.188C850.407 176.205 854.562 177.922 857.285 180.337C860.031 182.728 861.416 185.936 861.439 189.96C861.416 193.843 860.256 197.216 857.959 200.081C855.687 202.922 852.573 205.124 848.62 206.686C844.69 208.225 840.204 208.994 835.161 208.994C826.828 208.994 820.305 207.29 815.594 203.881C810.907 200.472 808.291 195.973 807.746 190.386H827.206C827.467 192.115 828.319 193.452 829.763 194.399C831.231 195.322 833.078 195.784 835.303 195.784C837.102 195.784 838.582 195.476 839.742 194.861C840.926 194.245 841.529 193.369 841.553 192.233C841.529 191.191 841.009 190.363 839.991 189.747C838.996 189.132 837.434 188.634 835.303 188.256L825.644 186.551C820.081 185.58 815.914 183.734 813.144 181.011C810.374 178.289 809.001 174.785 809.025 170.5C809.001 166.712 809.995 163.504 812.008 160.876C814.044 158.225 816.944 156.213 820.708 154.839C824.496 153.443 828.982 152.744 834.167 152.744C842.05 152.744 848.265 154.378 852.81 157.645C857.379 160.912 859.782 165.434 860.019 171.21Z" fill="url(#paint0_linear_145_6)" fill-opacity="0.61"/>
<mask id="path-2-outside-1_145_6" maskUnits="userSpaceOnUse" x="-1" y="76" width="126" height="164" fill="black">
<rect fill="white" x="-1" y="76" width="126" height="164"/>
<path d="M57.3863 237.64C46.2396 237.64 35.8263 235.807 26.1463 232.14C16.6129 228.327 8.54625 222.973 1.94625 216.08L29.4462 189.02C31.9396 192.54 35.7529 195.473 40.8863 197.82C46.0196 200.02 51.2996 201.12 56.7263 201.12C61.1263 201.12 65.0129 200.387 68.3863 198.92C71.9063 197.453 74.6196 195.327 76.5263 192.54C78.5796 189.753 79.6063 186.38 79.6063 182.42C79.6063 178.46 78.5796 175.087 76.5263 172.3C74.4729 169.513 71.5396 167.387 67.7263 165.92C63.9129 164.453 59.3663 163.72 54.0863 163.72C51.1529 163.72 47.9996 163.94 44.6263 164.38C41.3996 164.673 38.9063 165.187 37.1463 165.92L56.2863 142.16C61.4196 140.987 65.9663 140.033 69.9263 139.3C74.0329 138.42 77.6263 137.98 80.7063 137.98C88.6263 137.98 95.7396 139.813 102.046 143.48C108.353 147.147 113.34 152.427 117.006 159.32C120.673 166.067 122.506 174.133 122.506 183.52C122.506 194.227 119.793 203.687 114.366 211.9C109.086 219.967 101.533 226.273 91.7063 230.82C82.0263 235.367 70.5863 237.64 57.3863 237.64ZM37.1463 165.92V142.38L71.6863 101.68L118.546 101.9L82.9063 142.16L37.1463 165.92ZM13.6063 114.44V78.36H118.546V101.9L86.2063 114.44H13.6063Z"/>
</mask>
<path d="M26.1463 232.14L25.4035 233.997L25.4206 234.004L25.4378 234.01L26.1463 232.14ZM1.94625 216.08L0.543487 214.654L-0.862728 216.038L0.501634 217.463L1.94625 216.08ZM29.4462 189.02L31.0783 187.864L29.7193 185.945L28.0435 187.594L29.4462 189.02ZM40.8863 197.82L40.0547 199.639L40.0765 199.649L40.0984 199.658L40.8863 197.82ZM68.3863 198.92L67.617 197.074L67.6029 197.08L67.5888 197.086L68.3863 198.92ZM76.5263 192.54L74.9161 191.354L74.8954 191.382L74.8756 191.411L76.5263 192.54ZM76.5263 172.3L78.1364 171.114L76.5263 172.3ZM67.7263 165.92L68.4442 164.053L67.7263 165.92ZM44.6263 164.38L44.8073 166.372L44.8462 166.368L44.8849 166.363L44.6263 164.38ZM37.1463 165.92L35.5887 164.665L37.9155 167.766L37.1463 165.92ZM56.2863 142.16L55.8406 140.21L55.1641 140.365L54.7287 140.905L56.2863 142.16ZM69.9263 139.3L70.2904 141.267L70.3179 141.261L70.3453 141.256L69.9263 139.3ZM102.046 143.48L101.041 145.209H101.041L102.046 143.48ZM117.006 159.32L115.241 160.259L115.245 160.267L115.249 160.275L117.006 159.32ZM114.366 211.9L112.698 210.797L112.693 210.805L114.366 211.9ZM91.7063 230.82L90.8664 229.005L90.856 229.01L91.7063 230.82ZM37.1463 165.92H35.1463V169.212L38.0679 167.695L37.1463 165.92ZM37.1463 142.38L35.6214 141.086L35.1463 141.646V142.38H37.1463ZM71.6862 101.68L71.6956 99.68L70.7641 99.6756L70.1614 100.386L71.6862 101.68ZM118.546 101.9L120.044 103.226L122.969 99.9207L118.556 99.9L118.546 101.9ZM82.9063 142.16L83.8279 143.935L84.1576 143.764L84.4038 143.486L82.9063 142.16ZM13.6063 114.44H11.6063V116.44H13.6063V114.44ZM13.6063 78.36V76.36H11.6063V78.36H13.6063ZM118.546 78.36H120.546V76.36H118.546V78.36ZM118.546 101.9L119.269 103.765L120.546 103.27V101.9H118.546ZM86.2063 114.44V116.44H86.5804L86.9293 116.305L86.2063 114.44ZM57.3862 235.64C46.4629 235.64 36.2915 233.844 26.8547 230.27L25.4378 234.01C35.361 237.769 46.0162 239.64 57.3862 239.64V235.64ZM26.889 230.283C17.6004 226.568 9.77875 221.369 3.39087 214.697L0.501634 217.463C7.31375 224.578 15.6255 230.086 25.4035 233.997L26.889 230.283ZM3.34901 217.506L30.849 190.446L28.0435 187.594L0.543487 214.654L3.34901 217.506ZM27.8142 190.176C30.5648 194.059 34.6971 197.19 40.0547 199.639L41.7178 196.001C36.8088 193.757 33.3143 191.021 31.0783 187.864L27.8142 190.176ZM40.0984 199.658C45.4733 201.962 51.0208 203.12 56.7263 203.12V199.12C51.5784 199.12 46.5659 198.078 41.6741 195.982L40.0984 199.658ZM56.7263 203.12C61.3478 203.12 65.5144 202.349 69.1837 200.754L67.5888 197.086C64.5114 198.424 60.9047 199.12 56.7263 199.12V203.12ZM69.1555 200.766C72.9848 199.171 76.0245 196.815 78.1769 193.669L74.8756 191.411C73.2147 193.838 70.8277 195.736 67.617 197.074L69.1555 200.766ZM78.1364 193.726C80.4785 190.548 81.6063 186.743 81.6063 182.42H77.6063C77.6063 186.017 76.6807 188.959 74.9161 191.354L78.1364 193.726ZM81.6063 182.42C81.6063 178.097 80.4785 174.292 78.1364 171.114L74.9161 173.486C76.6807 175.881 77.6063 178.823 77.6063 182.42H81.6063ZM78.1364 171.114C75.8185 167.968 72.5485 165.632 68.4442 164.053L67.0083 167.787C70.5307 169.141 73.1274 171.059 74.9161 173.486L78.1364 171.114ZM68.4442 164.053C64.3457 162.477 59.5434 161.72 54.0863 161.72V165.72C59.1891 165.72 63.4802 166.43 67.0083 167.787L68.4442 164.053ZM54.0863 161.72C51.0541 161.72 47.8135 161.947 44.3676 162.397L44.8849 166.363C48.1857 165.933 51.2518 165.72 54.0863 165.72V161.72ZM44.4452 162.388C41.1366 162.689 38.4105 163.227 36.377 164.074L37.9155 167.766C39.402 167.147 41.6626 166.658 44.8073 166.372L44.4452 162.388ZM38.7038 167.175L57.8438 143.415L54.7287 140.905L35.5887 164.665L38.7038 167.175ZM56.7319 144.11C61.8459 142.941 66.3645 141.994 70.2904 141.267L69.5621 137.333C65.568 138.073 60.9933 139.033 55.8406 140.21L56.7319 144.11ZM70.3453 141.256C74.3603 140.395 77.8074 139.98 80.7063 139.98V135.98C77.4451 135.98 73.7056 136.445 69.5072 137.344L70.3453 141.256ZM80.7063 139.98C88.3043 139.98 95.0655 141.735 101.041 145.209L103.051 141.751C96.4137 137.892 88.9482 135.98 80.7063 135.98V139.98ZM101.041 145.209C107.003 148.675 111.736 153.671 115.241 160.259L118.772 158.381C114.943 151.183 109.703 145.618 103.051 141.751L101.041 145.209ZM115.249 160.275C118.725 166.67 120.506 174.393 120.506 183.52H124.506C124.506 173.873 122.621 165.463 118.764 158.365L115.249 160.275ZM120.506 183.52C120.506 193.87 117.889 202.94 112.698 210.797L116.035 213.003C121.697 204.433 124.506 194.583 124.506 183.52H120.506ZM112.693 210.805C107.642 218.521 100.396 224.596 90.8664 229.005L92.5461 232.635C102.67 227.951 110.53 221.413 116.04 212.995L112.693 210.805ZM90.856 229.01C81.4968 233.406 70.3596 235.64 57.3862 235.64V239.64C70.8129 239.64 82.5557 237.328 92.5565 232.63L90.856 229.01ZM39.1463 165.92V142.38H35.1463V165.92H39.1463ZM38.6711 143.674L73.2111 102.974L70.1614 100.386L35.6214 141.086L38.6711 143.674ZM71.6769 103.68L118.537 103.9L118.556 99.9L71.6956 99.68L71.6769 103.68ZM117.049 100.574L81.4087 140.834L84.4038 143.486L120.044 103.226L117.049 100.574ZM81.9846 140.385L36.2246 164.145L38.0679 167.695L83.8279 143.935L81.9846 140.385ZM15.6063 114.44V78.36H11.6063V114.44H15.6063ZM13.6063 80.36H118.546V76.36H13.6063V80.36ZM116.546 78.36V101.9H120.546V78.36H116.546ZM117.823 100.035L85.4832 112.575L86.9293 116.305L119.269 103.765L117.823 100.035ZM86.2063 112.44H13.6063V116.44H86.2063V112.44Z" fill="url(#paint1_linear_145_6)" mask="url(#path-2-outside-1_145_6)"/>
<defs>
<linearGradient id="paint0_linear_145_6" x1="628.396" y1="235.333" x2="629.23" y2="164.917" gradientUnits="userSpaceOnUse">
<stop stop-color="white"/>
<stop offset="1" stop-color="#00D1FF"/>
</linearGradient>
<linearGradient id="paint1_linear_145_6" x1="64" y1="117" x2="60" y2="262.5" gradientUnits="userSpaceOnUse">
<stop stop-color="#00ADFE"/>
<stop offset="1" stop-color="#D8F2FF"/>
</linearGradient>
</defs>
</svg>
