<svg width="265" height="91" viewBox="0 0 265 91" fill="none" xmlns="http://www.w3.org/2000/svg">
<path d="M227.418 0.0916191C226.916 -0.139315 226.323 0.0801715 226.092 0.581856C225.861 1.08354 226.08 1.67745 226.582 1.90838L227.418 0.0916191ZM259 29.5L259.581 30.3137L259 29.5ZM112.5 42.5L112.563 43.498L112.5 42.5ZM11.5 49L11.8961 49.9182L11.5 49ZM18.0578 89.4983C18.6091 89.4664 19.0302 88.9936 18.9983 88.4422L18.4785 79.4573C18.4466 78.9059 17.9738 78.4848 17.4224 78.5167C16.8711 78.5486 16.45 79.0214 16.4819 79.5728L16.9439 87.5594L8.95727 88.0215C8.4059 88.0534 7.98479 88.5262 8.01669 89.0776C8.04859 89.6289 8.52141 90.05 9.07278 90.0181L18.0578 89.4983ZM16.9303 86.1046C16.5373 85.7166 15.9042 85.7206 15.5161 86.1136C15.1281 86.5066 15.1321 87.1397 15.5251 87.5278L16.9303 86.1046ZM12.0821 83.911C12.4506 84.3224 13.0828 84.3571 13.4942 83.9887C13.9056 83.6202 13.9404 82.988 13.5719 82.5766L12.0821 83.911ZM10.4436 78.8496C10.1032 78.4147 9.47464 78.3382 9.03977 78.6786C8.60489 79.0191 8.52834 79.6476 8.86878 80.0825L10.4436 78.8496ZM5.93723 76.0146C6.24033 76.4763 6.86031 76.6048 7.32199 76.3017C7.78367 75.9986 7.91223 75.3787 7.60913 74.917L5.93723 76.0146ZM5.18905 70.7586C4.94088 70.2652 4.33974 70.0664 3.84635 70.3146C3.35296 70.5627 3.15416 71.1639 3.40233 71.6573L5.18905 70.7586ZM1.48513 66.9343C1.64444 67.4631 2.20227 67.7626 2.73108 67.6033C3.25989 67.444 3.55943 66.8862 3.40012 66.3574L1.48513 66.9343ZM2.63828 61.7853C2.63044 61.2331 2.17641 60.7918 1.62419 60.7996C1.07196 60.8075 0.630643 61.2615 0.638484 61.8137L2.63828 61.7853ZM1.59583 56.606C1.38438 57.1162 1.62658 57.7012 2.13678 57.9126C2.64699 58.1241 3.232 57.8819 3.44345 57.3717L1.59583 56.606ZM5.98913 53.6817C6.38388 53.2955 6.39077 52.6624 6.00452 52.2676C5.61827 51.8729 4.98514 51.866 4.59039 52.2522L5.98913 53.6817ZM8.80355 49.1992C8.31908 49.4644 8.14128 50.0721 8.40643 50.5565C8.67158 51.041 9.27926 51.2188 9.76374 50.9537L8.80355 49.1992ZM14.1955 49.0168C14.7163 48.833 14.9895 48.2618 14.8057 47.741C14.6219 47.2202 14.0507 46.947 13.5299 47.1309L14.1955 49.0168ZM18.5389 45.7334C17.9986 45.8479 17.6534 46.3786 17.7679 46.9189C17.8823 47.4592 18.4131 47.8044 18.9534 47.69L18.5389 45.7334ZM23.8672 46.905C24.4158 46.8413 24.8089 46.345 24.7453 45.7964C24.6816 45.2478 24.1852 44.8547 23.6366 44.9184L23.8672 46.905ZM28.7493 44.4777C28.1981 44.5118 27.7789 44.9864 27.8131 45.5376C27.8472 46.0888 28.3218 46.508 28.873 46.4738L28.7493 44.4777ZM33.9053 46.2399C34.4572 46.2209 34.8893 45.7581 34.8704 45.2062C34.8515 44.6542 34.3887 44.2221 33.8368 44.241L33.9053 46.2399ZM38.9193 44.1044C38.3672 44.1161 37.9291 44.5733 37.9408 45.1254C37.9525 45.6776 38.4096 46.1157 38.9618 46.104L38.9193 44.1044ZM44.036 46.0113C44.5882 46.0023 45.0286 45.5474 45.0197 44.9952C45.0107 44.443 44.5558 44.0026 44.0036 44.0116L44.036 46.0113ZM49.0798 43.9321C48.5276 43.9407 48.0869 44.3954 48.0955 44.9476C48.1041 45.4998 48.5588 45.9404 49.111 45.9318L49.0798 43.9321ZM54.1771 45.8488C54.7293 45.8392 55.1692 45.3837 55.1595 44.8315C55.1499 44.2793 54.6945 43.8395 54.1423 43.8491L54.1771 45.8488ZM59.2146 43.7531C58.6625 43.7645 58.2241 44.2213 58.2354 44.7735C58.2468 45.3256 58.7036 45.764 59.2558 45.7527L59.2146 43.7531ZM64.3561 45.638C64.9083 45.6245 65.3449 45.166 65.3314 44.6139C65.3179 44.0617 64.8594 43.6251 64.3072 43.6386L64.3561 45.638ZM69.3592 43.5045C68.8071 43.5203 68.3724 43.9807 68.3882 44.5328C68.4041 45.0848 68.8644 45.5195 69.4165 45.5037L69.3592 43.5045ZM74.4854 45.3475C75.0374 45.3293 75.4701 44.867 75.4519 44.315C75.4336 43.763 74.9714 43.3303 74.4194 43.3486L74.4854 45.3475ZM79.484 43.1704C78.9321 43.191 78.5014 43.6551 78.5221 44.207C78.5427 44.7589 79.0068 45.1896 79.5587 45.169L79.484 43.1704ZM84.634 44.9685C85.1858 44.9455 85.6145 44.4796 85.5915 43.9278C85.5685 43.376 85.1025 42.9473 84.5507 42.9702L84.634 44.9685ZM89.6199 42.7485C89.0682 42.7738 88.6414 43.2415 88.6667 43.7932C88.692 44.3449 89.1598 44.7717 89.7115 44.7464L89.6199 42.7485ZM94.7936 44.5031C95.3452 44.4756 95.77 44.0061 95.7425 43.4545C95.715 42.9029 95.2455 42.4781 94.6939 42.5056L94.7936 44.5031ZM99.7768 42.242C99.2253 42.2717 98.8023 42.7428 98.832 43.2943C98.8617 43.8458 99.3328 44.2688 99.8843 44.2391L99.7768 42.242ZM104.935 43.9578C105.487 43.926 105.908 43.4533 105.876 42.902C105.845 42.3506 105.372 41.9293 104.82 41.9611L104.935 43.9578ZM109.867 41.6615C109.316 41.6952 108.896 42.1694 108.93 42.7206C108.964 43.2719 109.438 43.6914 109.989 43.6577L109.867 41.6615ZM114.99 43.3611C115.541 43.3329 115.966 42.863 115.938 42.3114C115.909 41.7598 115.439 41.3355 114.888 41.3637L114.99 43.3611ZM119.795 41.1477C119.243 41.169 118.813 41.6337 118.834 42.1856C118.856 42.7374 119.32 43.1675 119.872 43.1462L119.795 41.1477ZM124.8 42.9723C125.352 42.9543 125.785 42.4923 125.767 41.9403C125.749 41.3883 125.287 40.9554 124.735 40.9734L124.8 42.9723ZM129.682 40.8208C129.13 40.8371 128.695 41.2977 128.712 41.8498C128.728 42.4018 129.189 42.8362 129.741 42.82L129.682 40.8208ZM134.673 42.6792C135.225 42.6638 135.66 42.2038 135.645 41.6517C135.63 41.0996 135.169 40.6646 134.617 40.68L134.673 42.6792ZM139.538 40.5445C138.986 40.5596 138.551 41.0193 138.566 41.5714C138.581 42.1235 139.041 42.5588 139.593 42.5437L139.538 40.5445ZM144.519 42.4088C145.071 42.3936 145.506 41.9337 145.491 41.3817C145.476 40.8296 145.016 40.3944 144.464 40.4096L144.519 42.4088ZM149.383 40.2724C148.83 40.288 148.396 40.7482 148.411 41.3003C148.427 41.8524 148.887 42.2872 149.439 42.2716L149.383 40.2724ZM154.358 42.1295C154.91 42.1132 155.344 41.6525 155.328 41.1004C155.312 40.5484 154.851 40.1141 154.299 40.1304L154.358 42.1295ZM159.217 39.9812C158.665 39.9984 158.232 40.4599 158.249 41.0119C158.266 41.5639 158.728 41.9974 159.28 41.9802L159.217 39.9812ZM164.204 41.8218C164.756 41.8034 165.189 41.3411 165.171 40.7891C165.152 40.2371 164.69 39.8045 164.138 39.8229L164.204 41.8218ZM169.06 39.6535C168.508 39.6732 168.077 40.1366 168.097 40.6885C168.116 41.2404 168.58 41.6719 169.132 41.6523L169.06 39.6535ZM174.06 41.4699C174.612 41.4487 175.042 40.9841 175.021 40.4322C175 39.8804 174.535 39.4502 173.983 39.4714L174.06 41.4699ZM178.905 39.2745C178.353 39.2975 177.924 39.7634 177.947 40.3153C177.97 40.8671 178.436 41.2958 178.988 41.2728L178.905 39.2745ZM183.913 41.059C184.465 41.034 184.892 40.5665 184.867 40.0148C184.842 39.4631 184.375 39.0361 183.823 39.061L183.913 41.059ZM188.739 38.8286C188.188 38.8559 187.763 39.3251 187.79 39.8767C187.817 40.4283 188.286 40.8534 188.838 40.8262L188.739 38.8286ZM193.765 40.5717C194.316 40.5419 194.739 40.0707 194.709 39.5192C194.679 38.9677 194.208 38.5448 193.657 38.5746L193.765 40.5717ZM198.573 38.2962C198.021 38.329 197.601 38.8024 197.634 39.3537C197.666 39.905 198.14 40.3254 198.691 40.2927L198.573 38.2962ZM203.616 39.986C204.167 39.95 204.584 39.474 204.548 38.9229C204.512 38.3718 204.036 37.9542 203.485 37.9903L203.616 39.986ZM208.392 37.6528C207.841 37.6927 207.427 38.1715 207.467 38.7224C207.507 39.2732 207.986 39.6875 208.536 39.6476L208.392 37.6528ZM213.453 39.2727C214.003 39.2285 214.414 38.7463 214.37 38.1958C214.325 37.6453 213.843 37.2349 213.293 37.2792L213.453 39.2727ZM218.186 36.8633C217.636 36.9127 217.23 37.3987 217.279 37.9488C217.329 38.4989 217.815 38.9047 218.365 38.8553L218.186 36.8633ZM223.274 38.3874C223.823 38.3318 224.223 37.8413 224.168 37.2918C224.112 36.7423 223.622 36.3419 223.072 36.3975L223.274 38.3874ZM227.956 35.871C227.408 35.9341 227.014 36.43 227.077 36.9786C227.14 37.5273 227.636 37.921 228.185 37.8579L227.956 35.871ZM233.088 37.2537C233.636 37.1813 234.021 36.6788 233.949 36.1312C233.876 35.5837 233.374 35.1985 232.826 35.2709L233.088 37.2537ZM237.691 34.5756C237.146 34.6601 236.772 35.171 236.856 35.7168C236.94 36.2626 237.451 36.6366 237.997 36.5521L237.691 34.5756ZM242.901 35.7221C243.444 35.6213 243.803 35.0994 243.702 34.5564C243.601 34.0134 243.08 33.6549 242.536 33.7557L242.901 35.7221ZM247.328 32.765C246.79 32.8895 246.455 33.4266 246.579 33.9647C246.704 34.5028 247.241 34.838 247.779 34.7135L247.328 32.765ZM252.569 33.4394C253.097 33.2765 253.393 32.7167 253.23 32.189C253.067 31.6612 252.507 31.3654 251.98 31.5282L252.569 33.4394ZM256.457 29.8242C255.96 30.0653 255.753 30.6635 255.994 31.1604C256.235 31.6573 256.833 31.8646 257.33 31.6235L256.457 29.8242ZM261.731 28.5312C262.125 28.144 262.13 27.5108 261.743 27.117C261.356 26.7232 260.723 26.7179 260.329 27.1052L261.731 28.5312ZM262.442 23.2588C262.4 23.8094 262.812 24.29 263.363 24.3322C263.914 24.3743 264.394 23.962 264.436 23.4114L262.442 23.2588ZM262.431 17.9432C262.083 17.5136 261.454 17.4467 261.024 17.7939C260.595 18.141 260.528 18.7706 260.875 19.2002L262.431 17.9432ZM257.21 15.8842C257.658 16.2072 258.283 16.1058 258.606 15.6578C258.929 15.2098 258.828 14.5848 258.38 14.2618L257.21 15.8842ZM253.855 11.428C253.372 11.1598 252.763 11.3337 252.495 11.8165C252.227 12.2993 252.401 12.9081 252.884 13.1763L253.855 11.428ZM248.293 10.8356C248.793 11.0717 249.389 10.8584 249.625 10.3591C249.861 9.8598 249.648 9.26367 249.148 9.02757L248.293 10.8356ZM244.342 6.88111C243.834 6.66527 243.247 6.9024 243.031 7.41077C242.815 7.91913 243.052 8.50621 243.561 8.72205L244.342 6.88111ZM238.751 6.75471C239.265 6.95823 239.846 6.70702 240.049 6.1936C240.253 5.68018 240.002 5.09899 239.488 4.89547L238.751 6.75471ZM234.609 2.99515C234.094 2.79635 233.515 3.05289 233.316 3.56816C233.117 4.08342 233.374 4.66228 233.889 4.86108L234.609 2.99515ZM229.017 2.9512C229.529 3.15936 230.112 2.91341 230.32 2.40186C230.529 1.8903 230.283 1.30686 229.771 1.0987L229.017 2.9512ZM18 88.5C18.6651 87.7532 18.6651 87.7533 18.6651 87.7533C18.6651 87.7533 18.6652 87.7533 18.6652 87.7533C18.6652 87.7533 18.6652 87.7533 18.6652 87.7533C18.6652 87.7533 18.6652 87.7533 18.6651 87.7532C18.6649 87.7531 18.6646 87.7528 18.6641 87.7523C18.6631 87.7515 18.6615 87.75 18.6592 87.7479C18.6546 87.7438 18.6474 87.7374 18.6377 87.7286C18.6182 87.7111 18.5887 87.6844 18.5495 87.6488C18.4713 87.5775 18.3548 87.4705 18.2043 87.3301C17.9035 87.0492 17.4672 86.6348 16.9303 86.1046L15.5251 87.5278C16.0765 88.0722 16.5264 88.4997 16.8396 88.7921C16.9962 88.9383 17.1187 89.0508 17.2027 89.1273C17.2447 89.1656 17.2771 89.1948 17.2993 89.2148C17.3104 89.2248 17.319 89.2325 17.3249 89.2379C17.3279 89.2405 17.3302 89.2426 17.3319 89.2441C17.3327 89.2448 17.3334 89.2454 17.3339 89.2459C17.3342 89.2461 17.3344 89.2463 17.3345 89.2464C17.3346 89.2465 17.3347 89.2466 17.3348 89.2466C17.3348 89.2467 17.3348 89.2467 17.3348 89.2467C17.3349 89.2467 17.3349 89.2468 18 88.5ZM13.5719 82.5766C12.5735 81.4619 11.5061 80.2068 10.4436 78.8496L8.86878 80.0825C9.96261 81.4797 11.0591 82.7688 12.0821 83.911L13.5719 82.5766ZM7.60913 74.917C6.72511 73.5704 5.90165 72.1754 5.18905 70.7586L3.40233 71.6573C4.15524 73.1542 5.01902 74.616 5.93723 76.0146L7.60913 74.917ZM3.40012 66.3574C2.9309 64.7998 2.6593 63.2658 2.63828 61.7853L0.638484 61.8137C0.66266 63.5165 0.973923 65.2373 1.48513 66.9343L3.40012 66.3574ZM3.44345 57.3717C3.97715 56.0838 4.80117 54.8441 5.98913 53.6817L4.59039 52.2522C3.21947 53.5936 2.23802 55.0563 1.59583 56.606L3.44345 57.3717ZM9.76374 50.9537C10.4194 50.5948 11.1291 50.2491 11.8961 49.9182L11.1039 48.0818C10.2838 48.4356 9.51768 48.8084 8.80355 49.1992L9.76374 50.9537ZM11.8961 49.9182C12.6598 49.5888 13.4234 49.2894 14.1955 49.0168L13.5299 47.1309C12.7141 47.4188 11.9083 47.7348 11.1039 48.0818L11.8961 49.9182ZM18.9534 47.69C20.4827 47.366 22.1029 47.1098 23.8672 46.905L23.6366 44.9184C21.8221 45.129 20.1394 45.3943 18.5389 45.7334L18.9534 47.69ZM28.873 46.4738C30.4348 46.377 32.1044 46.3016 33.9053 46.2399L33.8368 44.241C32.023 44.3032 30.3343 44.3794 28.7493 44.4777L28.873 46.4738ZM38.9618 46.104C40.5588 46.07 42.2464 46.0404 44.036 46.0113L44.0036 44.0116C42.2126 44.0407 40.5211 44.0704 38.9193 44.1044L38.9618 46.104ZM49.111 45.9318C50.7242 45.9066 52.411 45.8796 54.1771 45.8488L54.1423 43.8491C52.3779 43.8799 50.6924 43.9069 49.0798 43.9321L49.111 45.9318ZM59.2558 45.7527C60.893 45.719 62.5919 45.6812 64.3561 45.638L64.3072 43.6386C62.5459 43.6817 60.8495 43.7194 59.2146 43.7531L59.2558 45.7527ZM69.4165 45.5037C71.0537 45.4568 72.7426 45.405 74.4854 45.3475L74.4194 43.3486C72.6796 43.406 70.9937 43.4577 69.3592 43.5045L69.4165 45.5037ZM79.5587 45.169C81.2053 45.1075 82.8965 45.0409 84.634 44.9685L84.5507 42.9702C82.8161 43.0425 81.1278 43.109 79.484 43.1704L79.5587 45.169ZM89.7115 44.7464C91.3658 44.6706 93.0595 44.5896 94.7936 44.5031L94.6939 42.5056C92.9625 42.592 91.2716 42.6728 89.6199 42.7485L89.7115 44.7464ZM99.8843 44.2391C101.533 44.1504 103.217 44.0567 104.935 43.9578L104.82 41.9611C103.104 42.0599 101.423 42.1534 99.7768 42.242L99.8843 44.2391ZM109.989 43.6577C110.839 43.6058 111.697 43.5525 112.563 43.498L112.437 41.502C111.572 41.5564 110.716 41.6096 109.867 41.6615L109.989 43.6577ZM112.563 43.498C113.313 43.4508 114.123 43.4053 114.99 43.3611L114.888 41.3637C114.015 41.4082 113.196 41.4542 112.437 41.502L112.563 43.498ZM119.872 43.1462C121.41 43.0868 123.057 43.0291 124.8 42.9723L124.735 40.9734C122.989 41.0303 121.338 41.0881 119.795 41.1477L119.872 43.1462ZM129.741 42.82C131.327 42.7733 132.973 42.7265 134.673 42.6792L134.617 40.68C132.917 40.7273 131.27 40.7741 129.682 40.8208L129.741 42.82ZM139.593 42.5437C141.199 42.4998 142.842 42.455 144.519 42.4088L144.464 40.4096C142.787 40.4557 141.144 40.5006 139.538 40.5445L139.593 42.5437ZM149.439 42.2716C151.055 42.2259 152.696 42.1786 154.358 42.1295L154.299 40.1304C152.638 40.1795 150.998 40.2267 149.383 40.2724L149.439 42.2716ZM159.28 41.9802C160.906 41.9295 162.549 41.8768 164.204 41.8218L164.138 39.8229C162.484 39.8778 160.843 39.9305 159.217 39.9812L159.28 41.9802ZM169.132 41.6523C170.766 41.594 172.41 41.5333 174.06 41.4699L173.983 39.4714C172.335 39.5347 170.693 39.5953 169.06 39.6535L169.132 41.6523ZM178.988 41.2728C180.628 41.2045 182.271 41.1333 183.913 41.059L183.823 39.061C182.183 39.1353 180.542 39.2063 178.905 39.2745L178.988 41.2728ZM188.838 40.8262C190.484 40.7449 192.127 40.6602 193.765 40.5717L193.657 38.5746C192.023 38.6629 190.383 38.7475 188.739 38.8286L188.838 40.8262ZM198.691 40.2927C200.343 40.1947 201.986 40.0926 203.616 39.986L203.485 37.9903C201.859 38.0966 200.221 38.1985 198.573 38.2962L198.691 40.2927ZM208.536 39.6476C210.193 39.5278 211.833 39.4029 213.453 39.2727L213.293 37.2792C211.678 37.4089 210.044 37.5334 208.392 37.6528L208.536 39.6476ZM218.365 38.8553C220.029 38.7058 221.666 38.5499 223.274 38.3874L223.072 36.3975C221.473 36.5593 219.843 36.7144 218.186 36.8633L218.365 38.8553ZM228.185 37.8579C229.862 37.6651 231.498 37.4639 233.088 37.2537L232.826 35.2709C231.249 35.4795 229.624 35.6794 227.956 35.871L228.185 37.8579ZM237.997 36.5521C239.702 36.2883 241.34 36.0119 242.901 35.7221L242.536 33.7557C240.997 34.0414 239.379 34.3145 237.691 34.5756L237.997 36.5521ZM247.779 34.7135C249.51 34.3128 251.113 33.8887 252.569 33.4394L251.98 31.5282C250.578 31.9607 249.023 32.3727 247.328 32.765L247.779 34.7135ZM257.33 31.6235C258.176 31.2128 258.932 30.7774 259.581 30.3137L258.419 28.6863C257.882 29.0697 257.228 29.4498 256.457 29.8242L257.33 31.6235ZM259.581 30.3137C260.406 29.7249 261.121 29.1311 261.731 28.5312L260.329 27.1052C259.805 27.6205 259.172 28.1481 258.419 28.6863L259.581 30.3137ZM264.436 23.4114C264.588 21.4364 263.768 19.5989 262.431 17.9432L260.875 19.2002C262.023 20.6212 262.541 21.9678 262.442 23.2588L264.436 23.4114ZM258.38 14.2618C257.019 13.2806 255.488 12.335 253.855 11.428L252.884 13.1763C254.468 14.0563 255.929 14.9604 257.21 15.8842L258.38 14.2618ZM249.148 9.02757C247.573 8.28251 245.956 7.56614 244.342 6.88111L243.561 8.72205C245.156 9.39915 246.747 10.1045 248.293 10.8356L249.148 9.02757ZM239.488 4.89547C237.789 4.22183 236.143 3.58679 234.609 2.99515L233.889 4.86108C235.424 5.45319 237.062 6.08499 238.751 6.75471L239.488 4.89547ZM229.771 1.0987C228.874 0.733778 228.084 0.397974 227.418 0.0916191L226.582 1.90838C227.286 2.23239 228.107 2.58081 229.017 2.9512L229.771 1.0987Z" fill="#00AEFF"/>
</svg>
