<svg width="670" height="85" viewBox="0 0 670 85" fill="none" xmlns="http://www.w3.org/2000/svg">
<mask id="path-1-inside-1_218_24" fill="white">
<path d="M0.25 83V1.54545H35.4091C41.4545 1.54545 46.7443 2.73863 51.2784 5.125C55.8125 7.51136 59.339 10.8655 61.858 15.1875C64.3769 19.5095 65.6364 24.5606 65.6364 30.3409C65.6364 36.1742 64.3371 41.2254 61.7386 45.4943C59.1667 49.7633 55.5474 53.0511 50.8807 55.358C46.2405 57.6648 40.8182 58.8182 34.6136 58.8182H13.6136V41.6364H30.1591C32.7576 41.6364 34.9716 41.1856 36.8011 40.2841C38.6572 39.3561 40.0758 38.0436 41.0568 36.3466C42.0644 34.6496 42.5682 32.6477 42.5682 30.3409C42.5682 28.0076 42.0644 26.0189 41.0568 24.375C40.0758 22.7045 38.6572 21.4318 36.8011 20.5568C34.9716 19.6553 32.7576 19.2045 30.1591 19.2045H22.3636V83H0.25ZM79.35 83V1.54545H114.509C120.555 1.54545 125.844 2.64583 130.378 4.84659C134.913 7.04735 138.439 10.2159 140.958 14.3523C143.477 18.4886 144.736 23.447 144.736 29.2273C144.736 35.0606 143.437 39.9792 140.839 43.983C138.267 47.9867 134.647 51.0095 129.981 53.0511C125.341 55.0928 119.918 56.1136 113.714 56.1136H92.7136V38.9318H109.259C111.858 38.9318 114.072 38.6136 115.901 37.9773C117.757 37.3144 119.176 36.267 120.157 34.8352C121.164 33.4034 121.668 31.5341 121.668 29.2273C121.668 26.8939 121.164 24.9981 120.157 23.5398C119.176 22.0549 117.757 20.9678 115.901 20.2784C114.072 19.5625 111.858 19.2045 109.259 19.2045H101.464V83H79.35ZM127.077 45.6136L147.441 83H123.418L103.532 45.6136H127.077ZM238.672 42.2727C238.672 51.3409 236.908 58.9905 233.382 65.2216C229.855 71.4261 225.096 76.1326 219.103 79.3409C213.111 82.5227 206.429 84.1136 199.058 84.1136C191.634 84.1136 184.925 82.5095 178.933 79.3011C172.967 76.0663 168.221 71.3466 164.694 65.142C161.194 58.911 159.444 51.2879 159.444 42.2727C159.444 33.2045 161.194 25.5682 164.694 19.3636C168.221 13.1326 172.967 8.42613 178.933 5.24432C184.925 2.03598 191.634 0.431815 199.058 0.431815C206.429 0.431815 213.111 2.03598 219.103 5.24432C225.096 8.42613 229.855 13.1326 233.382 19.3636C236.908 25.5682 238.672 33.2045 238.672 42.2727ZM215.922 42.2727C215.922 37.3939 215.272 33.2841 213.973 29.9432C212.7 26.5758 210.804 24.0303 208.285 22.3068C205.793 20.5568 202.717 19.6818 199.058 19.6818C195.399 19.6818 192.31 20.5568 189.791 22.3068C187.298 24.0303 185.403 26.5758 184.103 29.9432C182.831 33.2841 182.194 37.3939 182.194 42.2727C182.194 47.1515 182.831 51.2746 184.103 54.642C185.403 57.983 187.298 60.5284 189.791 62.2784C192.31 64.0019 195.399 64.8636 199.058 64.8636C202.717 64.8636 205.793 64.0019 208.285 62.2784C210.804 60.5284 212.7 57.983 213.973 54.642C215.272 51.2746 215.922 47.1515 215.922 42.2727ZM285.844 83H254.503V1.54545H285.526C293.905 1.54545 301.143 3.17613 307.242 6.4375C313.367 9.67234 318.086 14.339 321.401 20.4375C324.742 26.5095 326.412 33.7879 326.412 42.2727C326.412 50.7576 324.755 58.0492 321.441 64.1477C318.126 70.2197 313.433 74.8864 307.361 78.1477C301.289 81.3826 294.117 83 285.844 83ZM276.617 64.2273H285.049C289.079 64.2273 292.513 63.5777 295.35 62.2784C298.213 60.9792 300.388 58.7386 301.872 55.5568C303.384 52.375 304.139 47.947 304.139 42.2727C304.139 36.5985 303.371 32.1705 301.833 28.9886C300.321 25.8068 298.094 23.5663 295.151 22.267C292.234 20.9678 288.655 20.3182 284.412 20.3182H276.617V64.2273ZM390.448 1.54545H412.562V53.7273C412.562 59.9318 411.077 65.3011 408.107 69.8352C405.164 74.3428 401.054 77.8295 395.778 80.2955C390.501 82.7348 384.376 83.9545 377.403 83.9545C370.376 83.9545 364.225 82.7348 358.948 80.2955C353.672 77.8295 349.562 74.3428 346.619 69.8352C343.702 65.3011 342.244 59.9318 342.244 53.7273V1.54545H364.357V51.8182C364.357 54.3371 364.914 56.5909 366.028 58.5795C367.141 60.5417 368.679 62.0795 370.641 63.1932C372.63 64.3068 374.884 64.8636 377.403 64.8636C379.948 64.8636 382.202 64.3068 384.164 63.1932C386.126 62.0795 387.664 60.5417 388.778 58.5795C389.891 56.5909 390.448 54.3371 390.448 51.8182V1.54545ZM504.717 32.0909H482.286C482.126 30.2348 481.702 28.5511 481.013 27.0398C480.35 25.5284 479.422 24.2292 478.229 23.142C477.062 22.0284 475.643 21.1799 473.973 20.5966C472.303 19.9867 470.407 19.6818 468.286 19.6818C464.573 19.6818 461.431 20.5833 458.859 22.3864C456.314 24.1894 454.378 26.7746 453.053 30.142C451.753 33.5095 451.104 37.553 451.104 42.2727C451.104 47.2576 451.767 51.4337 453.092 54.8011C454.445 58.142 456.393 60.661 458.939 62.358C461.484 64.0284 464.547 64.8636 468.126 64.8636C470.168 64.8636 471.998 64.6117 473.615 64.108C475.232 63.5777 476.638 62.822 477.831 61.8409C479.024 60.8598 479.992 59.6799 480.734 58.3011C481.503 56.8958 482.02 55.3182 482.286 53.5682L504.717 53.7273C504.452 57.1742 503.484 60.6875 501.814 64.267C500.143 67.8201 497.77 71.108 494.695 74.1307C491.645 77.1269 487.867 79.5398 483.359 81.3693C478.852 83.1989 473.615 84.1136 467.649 84.1136C460.172 84.1136 453.464 82.5095 447.524 79.3011C441.611 76.0928 436.931 71.3731 433.484 65.142C430.064 58.911 428.354 51.2879 428.354 42.2727C428.354 33.2045 430.104 25.5682 433.604 19.3636C437.104 13.1326 441.823 8.42613 447.763 5.24432C453.702 2.03598 460.331 0.431815 467.649 0.431815C472.793 0.431815 477.526 1.13447 481.848 2.53977C486.17 3.94507 489.962 6 493.223 8.70454C496.484 11.3826 499.109 14.6837 501.098 18.608C503.087 22.5322 504.293 27.0265 504.717 32.0909ZM518.123 19.3636V1.54545H588.918V19.3636H564.418V83H542.623V19.3636H518.123ZM646.75 27C646.538 24.3485 645.543 22.2803 643.767 20.7955C642.017 19.3106 639.352 18.5682 635.772 18.5682C633.492 18.5682 631.623 18.8466 630.165 19.4034C628.733 19.9337 627.672 20.6629 626.983 21.5909C626.293 22.5189 625.935 23.5795 625.909 24.7727C625.856 25.7538 626.028 26.642 626.426 27.4375C626.85 28.2064 627.513 28.9091 628.415 29.5455C629.316 30.1553 630.469 30.7121 631.875 31.2159C633.28 31.7197 634.95 32.1705 636.886 32.5682L643.568 34C648.075 34.9545 651.933 36.214 655.142 37.7784C658.35 39.3428 660.975 41.1856 663.017 43.3068C665.058 45.4015 666.557 47.7614 667.511 50.3864C668.492 53.0114 668.996 55.875 669.022 58.9773C668.996 64.3333 667.657 68.8674 665.005 72.5795C662.354 76.2917 658.562 79.1155 653.63 81.0511C648.725 82.9867 642.825 83.9545 635.932 83.9545C628.852 83.9545 622.674 82.9072 617.397 80.8125C612.147 78.7178 608.064 75.4962 605.147 71.1477C602.257 66.7727 600.799 61.178 600.772 54.3636H621.772C621.905 56.8561 622.528 58.9508 623.642 60.6477C624.755 62.3447 626.32 63.6307 628.335 64.5057C630.377 65.3807 632.803 65.8182 635.613 65.8182C637.973 65.8182 639.949 65.5265 641.54 64.9432C643.13 64.3598 644.337 63.5511 645.159 62.517C645.981 61.483 646.405 60.303 646.432 58.9773C646.405 57.7311 645.994 56.6439 645.199 55.7159C644.43 54.7614 643.157 53.9129 641.38 53.1705C639.604 52.4015 637.204 51.6856 634.182 51.0227L626.068 49.2727C618.856 47.7083 613.168 45.0966 609.005 41.4375C604.869 37.7519 602.814 32.7273 602.841 26.3636C602.814 21.1932 604.193 16.6723 606.977 12.8011C609.788 8.90341 613.672 5.86742 618.63 3.69318C623.615 1.51894 629.329 0.431815 635.772 0.431815C642.348 0.431815 648.036 1.53219 652.835 3.73295C657.634 5.93371 661.333 9.03598 663.932 13.0398C666.557 17.017 667.882 21.6705 667.909 27H646.75Z"/>
</mask>
<path d="M0.25 83V1.54545H35.4091C41.4545 1.54545 46.7443 2.73863 51.2784 5.125C55.8125 7.51136 59.339 10.8655 61.858 15.1875C64.3769 19.5095 65.6364 24.5606 65.6364 30.3409C65.6364 36.1742 64.3371 41.2254 61.7386 45.4943C59.1667 49.7633 55.5474 53.0511 50.8807 55.358C46.2405 57.6648 40.8182 58.8182 34.6136 58.8182H13.6136V41.6364H30.1591C32.7576 41.6364 34.9716 41.1856 36.8011 40.2841C38.6572 39.3561 40.0758 38.0436 41.0568 36.3466C42.0644 34.6496 42.5682 32.6477 42.5682 30.3409C42.5682 28.0076 42.0644 26.0189 41.0568 24.375C40.0758 22.7045 38.6572 21.4318 36.8011 20.5568C34.9716 19.6553 32.7576 19.2045 30.1591 19.2045H22.3636V83H0.25ZM79.35 83V1.54545H114.509C120.555 1.54545 125.844 2.64583 130.378 4.84659C134.913 7.04735 138.439 10.2159 140.958 14.3523C143.477 18.4886 144.736 23.447 144.736 29.2273C144.736 35.0606 143.437 39.9792 140.839 43.983C138.267 47.9867 134.647 51.0095 129.981 53.0511C125.341 55.0928 119.918 56.1136 113.714 56.1136H92.7136V38.9318H109.259C111.858 38.9318 114.072 38.6136 115.901 37.9773C117.757 37.3144 119.176 36.267 120.157 34.8352C121.164 33.4034 121.668 31.5341 121.668 29.2273C121.668 26.8939 121.164 24.9981 120.157 23.5398C119.176 22.0549 117.757 20.9678 115.901 20.2784C114.072 19.5625 111.858 19.2045 109.259 19.2045H101.464V83H79.35ZM127.077 45.6136L147.441 83H123.418L103.532 45.6136H127.077ZM238.672 42.2727C238.672 51.3409 236.908 58.9905 233.382 65.2216C229.855 71.4261 225.096 76.1326 219.103 79.3409C213.111 82.5227 206.429 84.1136 199.058 84.1136C191.634 84.1136 184.925 82.5095 178.933 79.3011C172.967 76.0663 168.221 71.3466 164.694 65.142C161.194 58.911 159.444 51.2879 159.444 42.2727C159.444 33.2045 161.194 25.5682 164.694 19.3636C168.221 13.1326 172.967 8.42613 178.933 5.24432C184.925 2.03598 191.634 0.431815 199.058 0.431815C206.429 0.431815 213.111 2.03598 219.103 5.24432C225.096 8.42613 229.855 13.1326 233.382 19.3636C236.908 25.5682 238.672 33.2045 238.672 42.2727ZM215.922 42.2727C215.922 37.3939 215.272 33.2841 213.973 29.9432C212.7 26.5758 210.804 24.0303 208.285 22.3068C205.793 20.5568 202.717 19.6818 199.058 19.6818C195.399 19.6818 192.31 20.5568 189.791 22.3068C187.298 24.0303 185.403 26.5758 184.103 29.9432C182.831 33.2841 182.194 37.3939 182.194 42.2727C182.194 47.1515 182.831 51.2746 184.103 54.642C185.403 57.983 187.298 60.5284 189.791 62.2784C192.31 64.0019 195.399 64.8636 199.058 64.8636C202.717 64.8636 205.793 64.0019 208.285 62.2784C210.804 60.5284 212.7 57.983 213.973 54.642C215.272 51.2746 215.922 47.1515 215.922 42.2727ZM285.844 83H254.503V1.54545H285.526C293.905 1.54545 301.143 3.17613 307.242 6.4375C313.367 9.67234 318.086 14.339 321.401 20.4375C324.742 26.5095 326.412 33.7879 326.412 42.2727C326.412 50.7576 324.755 58.0492 321.441 64.1477C318.126 70.2197 313.433 74.8864 307.361 78.1477C301.289 81.3826 294.117 83 285.844 83ZM276.617 64.2273H285.049C289.079 64.2273 292.513 63.5777 295.35 62.2784C298.213 60.9792 300.388 58.7386 301.872 55.5568C303.384 52.375 304.139 47.947 304.139 42.2727C304.139 36.5985 303.371 32.1705 301.833 28.9886C300.321 25.8068 298.094 23.5663 295.151 22.267C292.234 20.9678 288.655 20.3182 284.412 20.3182H276.617V64.2273ZM390.448 1.54545H412.562V53.7273C412.562 59.9318 411.077 65.3011 408.107 69.8352C405.164 74.3428 401.054 77.8295 395.778 80.2955C390.501 82.7348 384.376 83.9545 377.403 83.9545C370.376 83.9545 364.225 82.7348 358.948 80.2955C353.672 77.8295 349.562 74.3428 346.619 69.8352C343.702 65.3011 342.244 59.9318 342.244 53.7273V1.54545H364.357V51.8182C364.357 54.3371 364.914 56.5909 366.028 58.5795C367.141 60.5417 368.679 62.0795 370.641 63.1932C372.63 64.3068 374.884 64.8636 377.403 64.8636C379.948 64.8636 382.202 64.3068 384.164 63.1932C386.126 62.0795 387.664 60.5417 388.778 58.5795C389.891 56.5909 390.448 54.3371 390.448 51.8182V1.54545ZM504.717 32.0909H482.286C482.126 30.2348 481.702 28.5511 481.013 27.0398C480.35 25.5284 479.422 24.2292 478.229 23.142C477.062 22.0284 475.643 21.1799 473.973 20.5966C472.303 19.9867 470.407 19.6818 468.286 19.6818C464.573 19.6818 461.431 20.5833 458.859 22.3864C456.314 24.1894 454.378 26.7746 453.053 30.142C451.753 33.5095 451.104 37.553 451.104 42.2727C451.104 47.2576 451.767 51.4337 453.092 54.8011C454.445 58.142 456.393 60.661 458.939 62.358C461.484 64.0284 464.547 64.8636 468.126 64.8636C470.168 64.8636 471.998 64.6117 473.615 64.108C475.232 63.5777 476.638 62.822 477.831 61.8409C479.024 60.8598 479.992 59.6799 480.734 58.3011C481.503 56.8958 482.02 55.3182 482.286 53.5682L504.717 53.7273C504.452 57.1742 503.484 60.6875 501.814 64.267C500.143 67.8201 497.77 71.108 494.695 74.1307C491.645 77.1269 487.867 79.5398 483.359 81.3693C478.852 83.1989 473.615 84.1136 467.649 84.1136C460.172 84.1136 453.464 82.5095 447.524 79.3011C441.611 76.0928 436.931 71.3731 433.484 65.142C430.064 58.911 428.354 51.2879 428.354 42.2727C428.354 33.2045 430.104 25.5682 433.604 19.3636C437.104 13.1326 441.823 8.42613 447.763 5.24432C453.702 2.03598 460.331 0.431815 467.649 0.431815C472.793 0.431815 477.526 1.13447 481.848 2.53977C486.17 3.94507 489.962 6 493.223 8.70454C496.484 11.3826 499.109 14.6837 501.098 18.608C503.087 22.5322 504.293 27.0265 504.717 32.0909ZM518.123 19.3636V1.54545H588.918V19.3636H564.418V83H542.623V19.3636H518.123ZM646.75 27C646.538 24.3485 645.543 22.2803 643.767 20.7955C642.017 19.3106 639.352 18.5682 635.772 18.5682C633.492 18.5682 631.623 18.8466 630.165 19.4034C628.733 19.9337 627.672 20.6629 626.983 21.5909C626.293 22.5189 625.935 23.5795 625.909 24.7727C625.856 25.7538 626.028 26.642 626.426 27.4375C626.85 28.2064 627.513 28.9091 628.415 29.5455C629.316 30.1553 630.469 30.7121 631.875 31.2159C633.28 31.7197 634.95 32.1705 636.886 32.5682L643.568 34C648.075 34.9545 651.933 36.214 655.142 37.7784C658.35 39.3428 660.975 41.1856 663.017 43.3068C665.058 45.4015 666.557 47.7614 667.511 50.3864C668.492 53.0114 668.996 55.875 669.022 58.9773C668.996 64.3333 667.657 68.8674 665.005 72.5795C662.354 76.2917 658.562 79.1155 653.63 81.0511C648.725 82.9867 642.825 83.9545 635.932 83.9545C628.852 83.9545 622.674 82.9072 617.397 80.8125C612.147 78.7178 608.064 75.4962 605.147 71.1477C602.257 66.7727 600.799 61.178 600.772 54.3636H621.772C621.905 56.8561 622.528 58.9508 623.642 60.6477C624.755 62.3447 626.32 63.6307 628.335 64.5057C630.377 65.3807 632.803 65.8182 635.613 65.8182C637.973 65.8182 639.949 65.5265 641.54 64.9432C643.13 64.3598 644.337 63.5511 645.159 62.517C645.981 61.483 646.405 60.303 646.432 58.9773C646.405 57.7311 645.994 56.6439 645.199 55.7159C644.43 54.7614 643.157 53.9129 641.38 53.1705C639.604 52.4015 637.204 51.6856 634.182 51.0227L626.068 49.2727C618.856 47.7083 613.168 45.0966 609.005 41.4375C604.869 37.7519 602.814 32.7273 602.841 26.3636C602.814 21.1932 604.193 16.6723 606.977 12.8011C609.788 8.90341 613.672 5.86742 618.63 3.69318C623.615 1.51894 629.329 0.431815 635.772 0.431815C642.348 0.431815 648.036 1.53219 652.835 3.73295C657.634 5.93371 661.333 9.03598 663.932 13.0398C666.557 17.017 667.882 21.6705 667.909 27H646.75Z" fill="url(#paint0_linear_218_24)"/>
<path d="M0.25 83H-2.75V86H0.25V83ZM0.25 1.54545V-1.45455H-2.75V1.54545H0.25ZM51.2784 5.125L49.8812 7.77975L49.8812 7.77976L51.2784 5.125ZM61.858 15.1875L64.4499 13.6769L64.4499 13.6769L61.858 15.1875ZM61.7386 45.4943L59.176 43.9345L59.169 43.9461L61.7386 45.4943ZM50.8807 55.358L49.5513 52.6686L49.5452 52.6716L50.8807 55.358ZM13.6136 58.8182H10.6136V61.8182H13.6136V58.8182ZM13.6136 41.6364V38.6364H10.6136V41.6364H13.6136ZM36.8011 40.2841L38.1272 42.9751L38.135 42.9713L38.1428 42.9674L36.8011 40.2841ZM41.0568 36.3466L38.4773 34.815L38.4683 34.83L38.4596 34.8451L41.0568 36.3466ZM41.0568 24.375L38.47 25.8943L38.4843 25.9186L38.499 25.9427L41.0568 24.375ZM36.8011 20.5568L35.4751 23.2479L35.4984 23.2593L35.5219 23.2704L36.8011 20.5568ZM22.3636 19.2045V16.2045H19.3636V19.2045H22.3636ZM22.3636 83V86H25.3636V83H22.3636ZM3.25 83V1.54545H-2.75V83H3.25ZM0.25 4.54545H35.4091V-1.45455H0.25V4.54545ZM35.4091 4.54545C41.0551 4.54545 45.8492 5.65765 49.8812 7.77975L52.6757 2.47025C47.6395 -0.180381 41.8539 -1.45455 35.4091 -1.45455V4.54545ZM49.8812 7.77976C53.9304 9.91093 57.0374 12.8742 59.266 16.6981L64.4499 13.6769C61.6406 8.85683 57.6946 5.11179 52.6756 2.47024L49.8812 7.77976ZM59.266 16.6981C61.4785 20.4943 62.6364 25.0077 62.6364 30.3409H68.6364C68.6364 24.1135 67.2753 18.5247 64.4499 13.6769L59.266 16.6981ZM62.6364 30.3409C62.6364 35.7174 61.4435 40.2093 59.176 43.9345L64.3012 47.0542C67.2307 42.2414 68.6364 36.6311 68.6364 30.3409H62.6364ZM59.169 43.9461C56.9064 47.7015 53.728 50.6039 49.5513 52.6686L52.2101 58.0473C57.3667 55.4983 61.4269 51.825 64.3083 47.0425L59.169 43.9461ZM49.5452 52.6716C45.3941 54.7353 40.4453 55.8182 34.6136 55.8182V61.8182C41.1911 61.8182 47.087 60.5943 52.2162 58.0443L49.5452 52.6716ZM34.6136 55.8182H13.6136V61.8182H34.6136V55.8182ZM16.6136 58.8182V41.6364H10.6136V58.8182H16.6136ZM13.6136 44.6364H30.1591V38.6364H13.6136V44.6364ZM30.1591 44.6364C33.0952 44.6364 35.788 44.1278 38.1272 42.9751L35.4751 37.5931C34.1552 38.2434 32.4199 38.6364 30.1591 38.6364V44.6364ZM38.1428 42.9674C40.4916 41.793 42.3615 40.0838 43.654 37.8481L38.4596 34.8451C37.79 36.0033 36.8228 36.9192 35.4595 37.6008L38.1428 42.9674ZM43.6364 37.8782C44.9626 35.6445 45.5682 33.0947 45.5682 30.3409H39.5682C39.5682 32.2008 39.1661 33.6547 38.4773 34.815L43.6364 37.8782ZM45.5682 30.3409C45.5682 27.5709 44.9668 25.0135 43.6146 22.8073L38.499 25.9427C39.162 27.0244 39.5682 28.4442 39.5682 30.3409H45.5682ZM43.6437 22.8557C42.3383 20.6331 40.4484 18.9596 38.0804 17.8432L35.5219 23.2704C36.866 23.904 37.8132 24.776 38.47 25.8943L43.6437 22.8557ZM38.1272 17.8658C35.788 16.7131 33.0952 16.2045 30.1591 16.2045V22.2045C32.4199 22.2045 34.1552 22.5975 35.4751 23.2479L38.1272 17.8658ZM30.1591 16.2045H22.3636V22.2045H30.1591V16.2045ZM19.3636 19.2045V83H25.3636V19.2045H19.3636ZM22.3636 80H0.25V86H22.3636V80ZM79.35 83H76.35V86H79.35V83ZM79.35 1.54545V-1.45455H76.35V1.54545H79.35ZM130.378 4.84659L129.068 7.54547L130.378 4.84659ZM140.958 14.3523L143.52 12.7919L143.52 12.7919L140.958 14.3523ZM140.839 43.983L138.322 42.3497L138.315 42.3615L140.839 43.983ZM129.981 53.0511L128.778 50.3027L128.772 50.3052L129.981 53.0511ZM92.7136 56.1136H89.7136V59.1136H92.7136V56.1136ZM92.7136 38.9318V35.9318H89.7136V38.9318H92.7136ZM115.901 37.9773L116.887 40.8108L116.898 40.8067L116.91 40.8025L115.901 37.9773ZM120.157 34.8352L117.703 33.1087L117.693 33.1241L117.682 33.1395L120.157 34.8352ZM120.157 23.5398L117.654 25.1935L117.671 25.2195L117.689 25.2451L120.157 23.5398ZM115.901 20.2784L114.808 23.0721L114.832 23.0816L114.857 23.0907L115.901 20.2784ZM101.464 19.2045V16.2045H98.4636V19.2045H101.464ZM101.464 83V86H104.464V83H101.464ZM127.077 45.6136L129.712 44.1786L128.859 42.6136H127.077V45.6136ZM147.441 83V86H152.491L150.075 81.565L147.441 83ZM123.418 83L120.77 84.4088L121.616 86H123.418V83ZM103.532 45.6136V42.6136H98.5381L100.883 47.0225L103.532 45.6136ZM82.35 83V1.54545H76.35V83H82.35ZM79.35 4.54545H114.509V-1.45455H79.35V4.54545ZM114.509 4.54545C120.19 4.54545 125.016 5.57854 129.068 7.54547L131.688 2.14771C126.673 -0.286876 120.919 -1.45455 114.509 -1.45455V4.54545ZM129.068 7.54547C133.107 9.50555 136.189 12.2888 138.396 15.9126L143.52 12.7919C140.689 8.14306 136.718 4.58914 131.688 2.14771L129.068 7.54547ZM138.396 15.9126C140.577 19.495 141.736 23.8901 141.736 29.2273H147.736C147.736 23.0039 146.377 17.4823 143.52 12.7919L138.396 15.9126ZM141.736 29.2273C141.736 34.6105 140.541 38.9306 138.322 42.3497L143.355 45.6162C146.333 41.0278 147.736 35.5107 147.736 29.2273H141.736ZM138.315 42.3615C136.085 45.832 132.943 48.4806 128.778 50.3027L131.183 55.7996C136.352 53.5383 140.448 50.1415 143.363 45.6044L138.315 42.3615ZM128.772 50.3052C124.588 52.1462 119.593 53.1136 113.714 53.1136V59.1136C120.243 59.1136 126.093 58.0394 131.189 55.7971L128.772 50.3052ZM113.714 53.1136H92.7136V59.1136H113.714V53.1136ZM95.7136 56.1136V38.9318H89.7136V56.1136H95.7136ZM92.7136 41.9318H109.259V35.9318H92.7136V41.9318ZM109.259 41.9318C112.086 41.9318 114.653 41.5878 116.887 40.8108L114.916 35.1438C113.49 35.6395 111.629 35.9318 109.259 35.9318V41.9318ZM116.91 40.8025C119.278 39.957 121.246 38.5534 122.632 36.5309L117.682 33.1395C117.106 33.9807 116.237 34.6718 114.892 35.152L116.91 40.8025ZM122.61 36.5617C124.071 34.4859 124.668 31.9578 124.668 29.2273H118.668C118.668 31.1103 118.258 32.3209 117.703 33.1087L122.61 36.5617ZM124.668 29.2273C124.668 26.4752 124.073 23.9307 122.625 21.8345L117.689 25.2451C118.255 26.0655 118.668 27.3127 118.668 29.2273H124.668ZM122.66 21.886C121.289 19.8106 119.328 18.351 116.946 17.4661L114.857 23.0907C116.186 23.5846 117.063 24.2993 117.654 25.1935L122.66 21.886ZM116.994 17.4847C114.724 16.5963 112.118 16.2045 109.259 16.2045V22.2045C111.598 22.2045 113.419 22.5287 114.808 23.0721L116.994 17.4847ZM109.259 16.2045H101.464V22.2045H109.259V16.2045ZM98.4636 19.2045V83H104.464V19.2045H98.4636ZM101.464 80H79.35V86H101.464V80ZM124.443 47.0486L144.806 84.435L150.075 81.565L129.712 44.1786L124.443 47.0486ZM147.441 80H123.418V86H147.441V80ZM126.067 81.5912L106.18 44.2048L100.883 47.0225L120.77 84.4088L126.067 81.5912ZM103.532 48.6136H127.077V42.6136H103.532V48.6136ZM233.382 65.2216L235.99 66.704L235.993 66.6992L233.382 65.2216ZM219.103 79.3409L220.51 81.9906L220.519 81.9857L219.103 79.3409ZM178.933 79.3011L177.503 81.9384L177.51 81.9422L177.517 81.9459L178.933 79.3011ZM164.694 65.142L162.079 66.6112L162.082 66.6179L162.086 66.6245L164.694 65.142ZM164.694 19.3636L162.083 17.886L162.081 17.8897L164.694 19.3636ZM178.933 5.24432L180.345 7.89138L180.349 7.8891L178.933 5.24432ZM219.103 5.24432L217.687 7.88912L217.697 7.89397L219.103 5.24432ZM233.382 19.3636L230.771 20.8413L230.774 20.846L233.382 19.3636ZM213.973 29.9432L211.166 31.0038L211.172 31.0172L211.177 31.0305L213.973 29.9432ZM208.285 22.3068L206.561 24.7621L206.576 24.7725L206.591 24.7827L208.285 22.3068ZM189.791 22.3068L191.497 24.7743L191.503 24.7706L189.791 22.3068ZM184.103 29.9432L181.304 28.8633L181.3 28.8752L184.103 29.9432ZM184.103 54.642L181.297 55.7027L181.302 55.7161L181.307 55.7294L184.103 54.642ZM189.791 62.2784L188.067 64.7336L188.082 64.7441L188.097 64.7543L189.791 62.2784ZM208.285 62.2784L209.991 64.7459L209.997 64.7422L208.285 62.2784ZM213.973 54.642L211.174 53.5621L211.169 53.5741L213.973 54.642ZM235.672 42.2727C235.672 50.9586 233.983 58.0685 230.771 63.744L235.993 66.6992C239.834 59.9126 241.672 51.7232 241.672 42.2727H235.672ZM230.774 63.7392C227.512 69.4773 223.155 73.7687 217.687 76.6961L220.519 81.9857C227.036 78.4965 232.198 73.3749 235.99 66.704L230.774 63.7392ZM217.697 76.6913C212.174 79.6235 205.982 81.1136 199.058 81.1136V87.1136C206.876 87.1136 214.048 85.422 220.51 81.9906L217.697 76.6913ZM199.058 81.1136C192.081 81.1136 185.867 79.6104 180.349 76.6563L177.517 81.9459C183.984 85.4085 191.186 87.1136 199.058 87.1136V81.1136ZM180.363 76.6639C174.916 73.7104 170.567 69.403 167.302 63.6596L162.086 66.6245C165.875 73.2901 171.018 78.4222 177.503 81.9384L180.363 76.6639ZM167.31 63.6728C164.12 57.9931 162.444 50.9055 162.444 42.2727H156.444C156.444 51.6703 158.269 59.8288 162.079 66.6112L167.31 63.6728ZM162.444 42.2727C162.444 33.5828 164.121 26.4856 167.307 20.8376L162.081 17.8897C158.267 24.6508 156.444 32.8263 156.444 42.2727H162.444ZM167.305 20.8413C170.568 15.0754 174.912 10.7891 180.345 7.89137L177.521 2.59726C171.023 6.06321 165.873 11.1898 162.083 17.886L167.305 20.8413ZM180.349 7.8891C185.867 4.93502 192.081 3.43182 199.058 3.43182V-2.56818C191.186 -2.56818 183.984 -0.863053 177.517 2.59953L180.349 7.8891ZM199.058 3.43182C205.978 3.43182 212.167 4.93334 217.687 7.8891L220.519 2.59953C214.055 -0.861381 206.88 -2.56818 199.058 -2.56818V3.43182ZM217.697 7.89397C223.156 10.7926 227.51 15.0788 230.771 20.8413L235.993 17.886C232.201 11.1864 227.036 6.05962 220.51 2.59466L217.697 7.89397ZM230.774 20.846C233.983 26.4922 235.672 33.5862 235.672 42.2727H241.672C241.672 32.8229 239.834 24.6441 235.99 17.8812L230.774 20.846ZM218.922 42.2727C218.922 37.1476 218.242 32.6439 216.769 28.8558L211.177 31.0305C212.302 33.9243 212.922 37.6403 212.922 42.2727H218.922ZM216.779 28.8826C215.329 25.0464 213.091 21.96 209.979 19.8309L206.591 24.7827C208.517 26.1006 210.071 28.1051 211.166 31.0038L216.779 28.8826ZM210.009 19.8516C206.917 17.6805 203.207 16.6818 199.058 16.6818V22.6818C202.227 22.6818 204.669 23.4331 206.561 24.7621L210.009 19.8516ZM199.058 16.6818C194.908 16.6818 191.191 17.6809 188.079 19.843L191.503 24.7706C193.428 23.4327 195.89 22.6818 199.058 22.6818V16.6818ZM188.085 19.8393C185.009 21.9663 182.778 25.0436 181.305 28.8633L186.902 31.0231C188.027 28.1079 189.588 26.0943 191.497 24.7743L188.085 19.8393ZM181.3 28.8752C179.859 32.6567 179.194 37.1532 179.194 42.2727H185.194C185.194 37.6347 185.802 33.9115 186.907 31.0112L181.3 28.8752ZM179.194 42.2727C179.194 47.3934 179.86 51.8994 181.297 55.7027L186.91 53.5814C185.802 50.6498 185.194 46.9096 185.194 42.2727H179.194ZM181.307 55.7294C182.782 59.5223 185.009 62.5868 188.067 64.7336L191.515 59.8232C189.588 58.47 188.023 56.4436 186.899 53.5547L181.307 55.7294ZM188.097 64.7543C191.207 66.8824 194.917 67.8636 199.058 67.8636V61.8636C195.881 61.8636 193.413 61.1214 191.485 59.8025L188.097 64.7543ZM199.058 67.8636C203.198 67.8636 206.901 66.8828 209.991 64.7459L206.579 59.8109C204.684 61.121 202.236 61.8636 199.058 61.8636V67.8636ZM209.997 64.7422C213.09 62.5932 215.325 59.5195 216.776 55.71L211.169 53.5741C210.075 56.4464 208.518 58.4636 206.574 59.8146L209.997 64.7422ZM216.772 55.7219C218.242 51.9122 218.922 47.399 218.922 42.2727H212.922C212.922 46.904 212.302 50.637 211.174 53.5622L216.772 55.7219ZM254.503 83H251.503V86H254.503V83ZM254.503 1.54545V-1.45455H251.503V1.54545H254.503ZM307.242 6.4375L305.827 9.08296L305.834 9.08663L305.841 9.09026L307.242 6.4375ZM321.401 20.4375L318.765 21.87L318.769 21.8769L318.772 21.8837L321.401 20.4375ZM321.441 64.1477L324.074 65.5851L324.077 65.5803L321.441 64.1477ZM307.361 78.1477L308.772 80.7954L308.781 80.7906L307.361 78.1477ZM276.617 64.2273H273.617V67.2273H276.617V64.2273ZM295.35 62.2784L294.11 59.5464L294.101 59.5508L295.35 62.2784ZM301.872 55.5568L299.163 54.2696L299.158 54.2789L299.154 54.2882L301.872 55.5568ZM301.833 28.9886L299.123 30.2758L299.127 30.285L299.132 30.2941L301.833 28.9886ZM295.151 22.267L293.93 25.0075L293.939 25.0115L295.151 22.267ZM276.617 20.3182V17.3182H273.617V20.3182H276.617ZM285.844 80H254.503V86H285.844V80ZM257.503 83V1.54545H251.503V83H257.503ZM254.503 4.54545H285.526V-1.45455H254.503V4.54545ZM285.526 4.54545C293.515 4.54545 300.247 6.09873 305.827 9.08296L308.657 3.79204C302.04 0.253538 294.295 -1.45455 285.526 -1.45455V4.54545ZM305.841 9.09026C311.442 12.0483 315.732 16.29 318.765 21.87L324.037 19.005C320.441 12.3881 315.292 7.29634 308.643 3.78474L305.841 9.09026ZM318.772 21.8837C321.821 27.4236 323.412 34.1812 323.412 42.2727H329.412C329.412 33.3946 327.663 25.5953 324.029 18.9913L318.772 21.8837ZM323.412 42.2727C323.412 50.3674 321.833 57.144 318.805 62.7152L324.077 65.5803C327.677 58.9545 329.412 51.1478 329.412 42.2727H323.412ZM318.807 62.7104C315.771 68.2732 311.499 72.5201 305.942 75.5048L308.781 80.7906C315.368 77.2526 320.482 72.1662 324.074 65.5851L318.807 62.7104ZM305.951 75.5C300.392 78.4611 293.724 80 285.844 80V86C294.51 86 302.186 84.304 308.772 80.7954L305.951 75.5ZM276.617 67.2273H285.049V61.2273H276.617V67.2273ZM285.049 67.2273C289.389 67.2273 293.273 66.529 296.599 65.006L294.101 59.5508C291.752 60.6263 288.769 61.2273 285.049 61.2273V67.2273ZM296.589 65.0104C300.182 63.3805 302.841 60.575 304.591 56.8255L299.154 54.2882C297.934 56.9022 296.245 58.5778 294.11 59.5464L296.589 65.0104ZM304.582 56.844C306.367 53.0877 307.139 48.151 307.139 42.2727H301.139C301.139 47.7429 300.401 51.6623 299.163 54.2696L304.582 56.844ZM307.139 42.2727C307.139 36.3898 306.352 31.4456 304.534 27.6831L299.132 30.2941C300.389 32.8953 301.139 36.8072 301.139 42.2727H307.139ZM304.543 27.7015C302.754 23.9363 300.028 21.1406 296.362 19.5226L293.939 25.0115C296.16 25.992 297.889 27.6773 299.123 30.2758L304.543 27.7015ZM296.372 19.5266C292.967 18.0098 288.944 17.3182 284.412 17.3182V23.3182C288.365 23.3182 291.502 23.9258 293.93 25.0074L296.372 19.5266ZM284.412 17.3182H276.617V23.3182H284.412V17.3182ZM273.617 20.3182V64.2273H279.617V20.3182H273.617ZM390.448 1.54545V-1.45455H387.448V1.54545H390.448ZM412.562 1.54545H415.562V-1.45455H412.562V1.54545ZM408.107 69.8352L405.598 68.1915L405.595 68.1951L408.107 69.8352ZM395.778 80.2955L397.037 83.0186L397.048 83.0133L395.778 80.2955ZM358.948 80.2955L357.678 83.0133L357.689 83.0185L358.948 80.2955ZM346.619 69.8352L344.096 71.4582L344.101 71.4668L344.107 71.4754L346.619 69.8352ZM342.244 1.54545V-1.45455H339.244V1.54545H342.244ZM364.357 1.54545H367.357V-1.45455H364.357V1.54545ZM366.028 58.5795L363.41 60.0454L363.415 60.0529L363.419 60.0604L366.028 58.5795ZM370.641 63.1932L369.161 65.8022L369.168 65.8065L369.176 65.8107L370.641 63.1932ZM384.164 63.1932L385.645 65.8022L385.645 65.8022L384.164 63.1932ZM388.778 58.5795L391.387 60.0604L391.391 60.0529L391.395 60.0454L388.778 58.5795ZM390.448 4.54545H412.562V-1.45455H390.448V4.54545ZM409.562 1.54545V53.7273H415.562V1.54545H409.562ZM409.562 53.7273C409.562 59.4347 408.203 64.2138 405.598 68.1915L410.617 71.479C413.951 66.3884 415.562 60.4289 415.562 53.7273H409.562ZM405.595 68.1951C402.983 72.1965 399.321 75.3281 394.508 77.5776L397.048 83.0133C402.788 80.3309 407.346 76.4891 410.619 71.4754L405.595 68.1951ZM394.519 77.5724C389.708 79.7966 384.027 80.9545 377.403 80.9545V86.9545C384.726 86.9545 391.295 85.6731 397.037 83.0185L394.519 77.5724ZM377.403 80.9545C370.722 80.9545 365.015 79.7953 360.207 77.5724L357.689 83.0185C363.434 85.6744 370.031 86.9545 377.403 86.9545V80.9545ZM360.218 77.5776C355.405 75.3281 351.743 72.1965 349.131 68.1951L344.107 71.4754C347.38 76.4891 351.938 80.3309 357.678 83.0133L360.218 77.5776ZM349.142 68.2122C346.581 64.2319 345.244 59.4452 345.244 53.7273H339.244C339.244 60.4184 340.823 66.3704 344.096 71.4582L349.142 68.2122ZM345.244 53.7273V1.54545H339.244V53.7273H345.244ZM342.244 4.54545H364.357V-1.45455H342.244V4.54545ZM361.357 1.54545V51.8182H367.357V1.54545H361.357ZM361.357 51.8182C361.357 54.7952 362.02 57.563 363.41 60.0454L368.645 57.1137C367.808 55.6188 367.357 53.8791 367.357 51.8182H361.357ZM363.419 60.0604C364.8 62.4935 366.728 64.4213 369.161 65.8022L372.122 60.5841C370.631 59.7378 369.483 58.5898 368.637 57.0987L363.419 60.0604ZM369.176 65.8107C371.658 67.2008 374.426 67.8636 377.403 67.8636V61.8636C375.342 61.8636 373.602 61.4128 372.107 60.5757L369.176 65.8107ZM377.403 67.8636C380.4 67.8636 383.176 67.2036 385.645 65.8022L382.683 60.5841C381.228 61.41 379.497 61.8636 377.403 61.8636V67.8636ZM385.645 65.8022C388.078 64.4213 390.006 62.4935 391.387 60.0604L386.169 57.0987C385.322 58.5898 384.174 59.7378 382.683 60.5841L385.645 65.8022ZM391.395 60.0454C392.785 57.563 393.448 54.7952 393.448 51.8182H387.448C387.448 53.8791 386.997 55.6188 386.16 57.1137L391.395 60.0454ZM393.448 51.8182V1.54545H387.448V51.8182H393.448ZM504.717 32.0909V35.0909H507.979L507.707 31.8405L504.717 32.0909ZM482.286 32.0909L479.296 32.3471L479.532 35.0909H482.286V32.0909ZM481.013 27.0398L478.265 28.2448L478.274 28.2648L478.283 28.2848L481.013 27.0398ZM478.229 23.142L476.157 25.3121L476.182 25.3362L476.208 25.3596L478.229 23.142ZM473.973 20.5966L472.944 23.4147L472.964 23.4219L472.984 23.4289L473.973 20.5966ZM458.859 22.3864L457.137 19.9299L457.131 19.9341L457.125 19.9383L458.859 22.3864ZM453.053 30.142L450.261 29.043L450.257 29.0526L450.254 29.0622L453.053 30.142ZM453.092 54.8011L450.301 55.9001L450.306 55.9134L450.311 55.9267L453.092 54.8011ZM458.939 62.358L457.275 64.8541L457.284 64.8601L457.293 64.8661L458.939 62.358ZM473.615 64.108L474.507 66.9722L474.529 66.9656L474.55 66.9586L473.615 64.108ZM477.831 61.8409L479.736 64.1582L479.736 64.1582L477.831 61.8409ZM480.734 58.3011L478.103 56.8611L478.098 56.87L478.093 56.8788L480.734 58.3011ZM482.286 53.5682L482.307 50.5683L479.709 50.5498L479.319 53.1188L482.286 53.5682ZM504.717 53.7273L507.708 53.9574L507.955 50.7502L504.739 50.7273L504.717 53.7273ZM501.814 64.267L504.529 65.5435L504.532 65.5357L501.814 64.267ZM494.695 74.1307L496.797 76.2705L496.797 76.2704L494.695 74.1307ZM483.359 81.3693L482.231 78.5896L483.359 81.3693ZM447.524 79.3011L446.093 81.938L446.098 81.9407L447.524 79.3011ZM433.484 65.142L430.855 66.5857L430.859 66.5942L433.484 65.142ZM433.604 19.3636L436.217 20.8376L436.219 20.8328L433.604 19.3636ZM447.763 5.24432L449.179 7.88877L449.189 7.88383L447.763 5.24432ZM481.848 2.53977L482.776 -0.313206L482.776 -0.313207L481.848 2.53977ZM493.223 8.70454L491.308 11.0138L491.314 11.0184L491.319 11.0231L493.223 8.70454ZM501.098 18.608L498.422 19.964L498.422 19.964L501.098 18.608ZM504.717 29.0909H482.286V35.0909H504.717V29.0909ZM485.275 31.8347C485.09 29.6778 484.59 27.6539 483.742 25.7948L478.283 28.2848C478.814 29.4483 479.163 30.7919 479.296 32.3471L485.275 31.8347ZM483.76 25.8348C482.932 23.9476 481.76 22.3009 480.249 20.9245L476.208 25.3596C477.084 26.1574 477.767 27.1092 478.265 28.2448L483.76 25.8348ZM480.3 20.972C478.795 19.5353 476.997 18.4749 474.962 17.7643L472.984 23.4289C474.29 23.885 475.329 24.5215 476.157 25.3121L480.3 20.972ZM475.002 17.7785C472.945 17.0276 470.692 16.6818 468.286 16.6818V22.6818C470.122 22.6818 471.66 22.9459 472.944 23.4147L475.002 17.7785ZM468.286 16.6818C464.072 16.6818 460.3 17.7124 457.137 19.9299L460.581 24.8429C462.562 23.4542 465.075 22.6818 468.286 22.6818V16.6818ZM457.125 19.9383C454.031 22.1299 451.766 25.2217 450.261 29.043L455.844 31.241C456.991 28.3276 458.597 26.2488 460.593 24.8344L457.125 19.9383ZM450.254 29.0622C448.788 32.862 448.104 37.2915 448.104 42.2727H454.104C454.104 37.8146 454.719 34.1569 455.851 31.2219L450.254 29.0622ZM448.104 42.2727C448.104 47.5014 448.796 52.0777 450.301 55.9001L455.884 53.7021C454.737 50.7898 454.104 47.0137 454.104 42.2727H448.104ZM450.311 55.9267C451.849 59.7245 454.144 62.7667 457.275 64.8541L460.603 59.8618C458.643 58.5553 457.041 56.5596 455.873 53.6756L450.311 55.9267ZM457.293 64.8661C460.408 66.9105 464.067 67.8636 468.126 67.8636V61.8636C465.027 61.8636 462.561 61.1463 460.585 59.8498L457.293 64.8661ZM468.126 67.8636C470.411 67.8636 472.549 67.5822 474.507 66.9722L472.723 61.2437C471.446 61.6413 469.925 61.8636 468.126 61.8636V67.8636ZM474.55 66.9586C476.485 66.3241 478.228 65.3987 479.736 64.1582L475.926 59.5236C475.048 60.2452 473.98 60.8312 472.68 61.2573L474.55 66.9586ZM479.736 64.1582C481.235 62.926 482.451 61.4407 483.376 59.7234L478.093 56.8788C477.533 57.9191 476.813 58.7937 475.926 59.5236L479.736 64.1582ZM483.366 59.7412C484.32 57.9971 484.939 56.0785 485.252 54.0176L479.319 53.1188C479.101 54.5578 478.686 55.7945 478.103 56.8611L483.366 59.7412ZM482.264 56.5681L504.696 56.7272L504.739 50.7273L482.307 50.5683L482.264 56.5681ZM501.726 53.4972C501.492 56.5369 500.635 59.6997 499.095 62.9984L504.532 65.5357C506.334 61.6753 507.412 57.8115 507.708 53.9574L501.726 53.4972ZM499.099 62.9906C497.594 66.1917 495.439 69.193 492.592 71.991L496.797 76.2704C500.102 73.0229 502.693 69.4484 504.529 65.5435L499.099 62.9906ZM492.592 71.9908C489.859 74.6767 486.425 76.8873 482.231 78.5896L484.488 84.1491C489.309 82.1922 493.432 79.577 496.797 76.2705L492.592 71.9908ZM482.231 78.5896C478.153 80.2448 473.313 81.1136 467.649 81.1136V87.1136C473.917 87.1136 479.551 86.1529 484.488 84.1491L482.231 78.5896ZM467.649 81.1136C460.615 81.1136 454.406 79.6087 448.95 76.6616L446.098 81.9407C452.521 85.4103 459.729 87.1136 467.649 87.1136V81.1136ZM448.955 76.6643C443.575 73.7451 439.296 69.4509 436.109 63.6899L430.859 66.5942C434.566 73.2953 439.648 78.4405 446.093 81.938L448.955 76.6643ZM436.114 63.6984C432.993 58.013 431.354 50.9158 431.354 42.2727H425.354C425.354 51.66 427.135 59.8089 430.855 66.5857L436.114 63.6984ZM431.354 42.2727C431.354 33.5828 433.031 26.4856 436.217 20.8376L430.991 17.8897C427.177 24.6508 425.354 32.8263 425.354 42.2727H431.354ZM436.219 20.8328C439.457 15.068 443.774 10.7843 449.179 7.88876L446.346 2.59988C439.872 6.06798 434.75 11.1971 430.988 17.8944L436.219 20.8328ZM449.189 7.88383C454.654 4.9317 460.786 3.43182 467.649 3.43182V-2.56818C459.876 -2.56818 452.751 -0.859734 446.337 2.6048L449.189 7.88383ZM467.649 3.43182C472.519 3.43182 476.935 4.09675 480.92 5.39274L482.776 -0.313207C478.118 -1.82781 473.067 -2.56818 467.649 -2.56818V3.43182ZM480.92 5.39274C484.908 6.68942 488.359 8.56838 491.308 11.0138L495.138 6.39527C491.564 3.43161 487.432 1.20073 482.776 -0.313206L480.92 5.39274ZM491.319 11.0231C494.246 13.426 496.613 16.3945 498.422 19.964L503.774 17.2519C501.606 12.9729 498.723 9.33912 495.127 6.38603L491.319 11.0231ZM498.422 19.964C500.211 23.4941 501.331 27.6031 501.728 32.3413L507.707 31.8405C507.255 26.4499 505.962 21.5703 503.774 17.2519L498.422 19.964ZM518.123 19.3636H515.123V22.3636H518.123V19.3636ZM518.123 1.54545V-1.45455H515.123V1.54545H518.123ZM588.918 1.54545H591.918V-1.45455H588.918V1.54545ZM588.918 19.3636V22.3636H591.918V19.3636H588.918ZM564.418 19.3636V16.3636H561.418V19.3636H564.418ZM564.418 83V86H567.418V83H564.418ZM542.623 83H539.623V86H542.623V83ZM542.623 19.3636H545.623V16.3636H542.623V19.3636ZM521.123 19.3636V1.54545H515.123V19.3636H521.123ZM518.123 4.54545H588.918V-1.45455H518.123V4.54545ZM585.918 1.54545V19.3636H591.918V1.54545H585.918ZM588.918 16.3636H564.418V22.3636H588.918V16.3636ZM561.418 19.3636V83H567.418V19.3636H561.418ZM564.418 80H542.623V86H564.418V80ZM545.623 83V19.3636H539.623V83H545.623ZM542.623 16.3636H518.123V22.3636H542.623V16.3636ZM646.75 27L643.759 27.2392L643.98 30H646.75V27ZM643.767 20.7955L641.826 23.083L641.834 23.0902L641.843 23.0973L643.767 20.7955ZM630.165 19.4034L631.206 22.2166L631.221 22.2114L631.235 22.2061L630.165 19.4034ZM626.983 21.5909L624.574 19.8019L624.574 19.8019L626.983 21.5909ZM625.909 24.7727L628.904 24.9347L628.907 24.887L628.908 24.8394L625.909 24.7727ZM626.426 27.4375L623.743 28.7791L623.77 28.8335L623.799 28.8867L626.426 27.4375ZM628.415 29.5455L626.684 31.9964L626.709 32.0136L626.734 32.0303L628.415 29.5455ZM636.886 32.5682L637.515 29.6348L637.502 29.6321L637.49 29.6296L636.886 32.5682ZM643.568 34L642.939 36.9334L642.946 36.9349L643.568 34ZM655.142 37.7784L653.827 40.4749L655.142 37.7784ZM663.017 43.3068L660.855 45.3872L660.862 45.394L660.868 45.4008L663.017 43.3068ZM667.511 50.3864L664.692 51.4116L664.696 51.4241L664.701 51.4366L667.511 50.3864ZM669.022 58.9773L672.022 58.9921L672.023 58.9719L672.022 58.9516L669.022 58.9773ZM665.005 72.5795L667.447 74.3233L667.447 74.3233L665.005 72.5795ZM653.63 81.0511L652.534 78.2585L652.529 78.2605L653.63 81.0511ZM617.397 80.8125L616.286 83.5989L616.291 83.6008L617.397 80.8125ZM605.147 71.1477L602.644 72.8013L602.65 72.8101L602.656 72.8188L605.147 71.1477ZM600.772 54.3636V51.3636H597.761L597.772 54.3753L600.772 54.3636ZM621.772 54.3636L624.768 54.2043L624.617 51.3636H621.772V54.3636ZM623.642 60.6477L621.134 62.2937L621.134 62.2937L623.642 60.6477ZM628.335 64.5057L627.14 67.2575L627.147 67.2603L627.153 67.2631L628.335 64.5057ZM641.54 64.9432L642.572 67.7598L642.572 67.7598L641.54 64.9432ZM645.159 62.517L647.507 64.3838L647.507 64.3838L645.159 62.517ZM646.432 58.9773L649.431 59.0373L649.432 58.9754L649.431 58.9135L646.432 58.9773ZM645.199 55.7159L642.862 57.5979L642.891 57.6335L642.921 57.6683L645.199 55.7159ZM641.38 53.1705L640.189 55.9236L640.206 55.9311L640.224 55.9385L641.38 53.1705ZM634.182 51.0227L634.824 48.0923L634.814 48.0902L634.182 51.0227ZM626.068 49.2727L625.432 52.2045L625.435 52.2053L626.068 49.2727ZM609.005 41.4375L607.01 43.6773L607.017 43.6841L607.025 43.6908L609.005 41.4375ZM602.841 26.3636L605.841 26.3761L605.841 26.3622L605.841 26.3483L602.841 26.3636ZM606.977 12.8011L604.544 11.0465L604.541 11.0495L606.977 12.8011ZM618.63 3.69318L617.431 0.94336L617.426 0.945719L618.63 3.69318ZM652.835 3.73295L651.584 6.45991L651.584 6.45991L652.835 3.73295ZM663.932 13.0398L661.415 14.673L661.421 14.6827L661.428 14.6923L663.932 13.0398ZM667.909 27V30H670.924L670.909 26.9851L667.909 27ZM649.74 26.7608C649.474 23.4364 648.179 20.573 645.691 18.4936L641.843 23.0973C642.908 23.9876 643.601 25.2605 643.759 27.2392L649.74 26.7608ZM645.708 18.5079C643.184 16.3666 639.685 15.5682 635.772 15.5682V21.5682C639.019 21.5682 640.85 22.2546 641.826 23.083L645.708 18.5079ZM635.772 15.5682C633.28 15.5682 631.013 15.8681 629.094 16.6007L631.235 22.2061C632.232 21.8251 633.704 21.5682 635.772 21.5682V15.5682ZM629.123 16.5902C627.317 17.2588 625.705 18.2795 624.574 19.8019L629.391 23.3799C629.639 23.0462 630.148 22.6086 631.206 22.2166L629.123 16.5902ZM624.574 19.8019C623.502 21.2459 622.949 22.9129 622.91 24.7061L628.908 24.8394C628.921 24.2462 629.085 23.7919 629.391 23.3799L624.574 19.8019ZM622.913 24.6108C622.835 26.0559 623.088 27.4705 623.743 28.7791L629.109 26.0959C628.968 25.8135 628.876 25.4517 628.904 24.9347L622.913 24.6108ZM623.799 28.8867C624.492 30.1417 625.505 31.1636 626.684 31.9964L630.145 27.0945C629.521 26.6546 629.209 26.2712 629.053 25.9883L623.799 28.8867ZM626.734 32.0303C627.904 32.8218 629.302 33.4804 630.862 34.0399L632.887 28.3919C631.637 27.9438 630.728 27.4888 630.095 27.0606L626.734 32.0303ZM630.862 34.0399C632.436 34.6039 634.249 35.0891 636.282 35.5068L637.49 29.6296C635.652 29.2518 634.124 28.8355 632.887 28.3919L630.862 34.0399ZM636.258 35.5016L642.939 36.9334L644.196 31.0666L637.515 29.6348L636.258 35.5016ZM642.946 36.9349C647.28 37.8525 650.892 39.0439 653.827 40.4749L656.457 35.0819C652.975 33.3841 648.871 32.0566 644.189 31.0651L642.946 36.9349ZM653.827 40.4749C656.784 41.9169 659.103 43.5668 660.855 45.3872L665.178 41.2264C662.847 38.8044 659.916 36.7687 656.457 35.0819L653.827 40.4749ZM660.868 45.4008C662.628 47.2055 663.889 49.2052 664.692 51.4116L670.33 49.3611C669.224 46.3175 667.489 43.5975 665.165 41.2129L660.868 45.4008ZM664.701 51.4366C665.547 53.7005 665.999 56.2133 666.023 59.0029L672.022 58.9516C671.993 55.5367 671.437 52.3222 670.321 49.3361L664.701 51.4366ZM666.022 58.9624C665.999 63.8093 664.796 67.7118 662.564 70.8358L667.447 74.3233C670.518 70.0231 671.993 64.8573 672.022 58.9921L666.022 58.9624ZM662.564 70.8358C660.302 74.0032 657.015 76.5 652.534 78.2585L654.726 83.8438C660.11 81.731 664.406 78.5802 667.447 74.3233L662.564 70.8358ZM652.529 78.2605C648.064 80.0225 642.558 80.9545 635.932 80.9545V86.9545C643.092 86.9545 649.386 85.951 654.732 83.8417L652.529 78.2605ZM635.932 80.9545C629.141 80.9545 623.353 79.9492 618.504 78.0242L616.291 83.6008C621.995 85.8652 628.563 86.9545 635.932 86.9545V80.9545ZM618.509 78.0261C613.774 76.1369 610.192 73.2824 607.639 69.4766L602.656 72.8188C605.937 77.7101 610.521 81.2988 616.286 83.5989L618.509 78.0261ZM607.651 69.4941C605.166 65.7329 603.797 60.7551 603.772 54.352L597.772 54.3753C597.801 61.601 599.349 67.8126 602.644 72.8013L607.651 69.4941ZM600.772 57.3636H621.772V51.3636H600.772V57.3636ZM618.777 54.523C618.931 57.4244 619.669 60.0617 621.134 62.2937L626.15 59.0018C625.387 57.8399 624.879 56.2878 624.768 54.2043L618.777 54.523ZM621.134 62.2937C622.594 64.5197 624.635 66.1697 627.14 67.2575L629.53 61.7539C628.005 61.0917 626.916 60.1697 626.15 59.0018L621.134 62.2937ZM627.153 67.2631C629.653 68.3346 632.5 68.8182 635.613 68.8182V62.8182C633.105 62.8182 631.1 62.4268 629.517 61.7482L627.153 67.2631ZM635.613 68.8182C638.198 68.8182 640.549 68.5018 642.572 67.7598L640.507 62.1266C639.349 62.5512 637.749 62.8182 635.613 62.8182V68.8182ZM642.572 67.7598C644.537 67.0395 646.258 65.9555 647.507 64.3838L642.81 60.6503C642.416 61.1468 641.724 61.6801 640.507 62.1266L642.572 67.7598ZM647.507 64.3838C648.74 62.8329 649.391 61.0176 649.431 59.0373L643.432 58.9173C643.419 59.5885 643.222 60.133 642.81 60.6503L647.507 64.3838ZM649.431 58.9135C649.39 56.9882 648.733 55.2299 647.476 53.7635L642.921 57.6683C643.255 58.058 643.42 58.4739 643.432 59.0411L649.431 58.9135ZM647.535 53.8339C646.323 52.3298 644.537 51.238 642.537 50.4024L640.224 55.9385C641.777 56.5877 642.536 57.1929 642.862 57.5979L647.535 53.8339ZM642.572 50.4173C640.546 49.5404 637.938 48.7752 634.824 48.0924L633.539 53.9531C636.471 54.596 638.662 55.2627 640.189 55.9236L642.572 50.4173ZM634.814 48.0902L626.7 46.3402L625.435 52.2053L633.549 53.9553L634.814 48.0902ZM626.704 46.3409C619.831 44.8501 614.659 42.4131 610.986 39.1842L607.025 43.6908C611.677 47.7801 617.881 50.5666 625.432 52.2045L626.704 46.3409ZM611.001 39.1977C607.606 36.172 605.817 32.0213 605.841 26.3761L599.841 26.3511C599.811 33.4333 602.133 39.3318 607.01 43.6773L611.001 39.1977ZM605.841 26.3483C605.817 21.7552 607.03 17.8654 609.413 14.5527L604.541 11.0495C601.356 15.4793 599.811 20.6312 599.841 26.379L605.841 26.3483ZM609.41 14.5558C611.869 11.1458 615.304 8.4275 619.835 6.44064L617.426 0.945719C612.04 3.30734 607.706 6.66098 604.544 11.0465L609.41 14.5558ZM619.83 6.44299C624.373 4.46136 629.667 3.43182 635.772 3.43182V-2.56818C628.992 -2.56818 622.857 -1.42349 617.431 0.943365L619.83 6.44299ZM635.772 3.43182C642.02 3.43182 647.262 4.47756 651.584 6.45991L654.085 1.006C648.81 -1.41317 642.677 -2.56818 635.772 -2.56818V3.43182ZM651.584 6.45991C655.923 8.44955 659.159 11.1963 661.415 14.673L666.448 11.4066C663.507 6.87568 659.345 3.41787 654.085 1.006L651.584 6.45991ZM661.428 14.6923C663.695 18.1271 664.885 22.1965 664.909 27.0149L670.909 26.9851C670.88 21.1444 669.418 15.9069 666.435 11.3872L661.428 14.6923ZM667.909 24H646.75V30H667.909V24Z" fill="white" mask="url(#path-1-inside-1_218_24)"/>
<defs>
<linearGradient id="paint0_linear_218_24" x1="221.5" y1="29" x2="627.963" y2="40.3147" gradientUnits="userSpaceOnUse">
<stop stop-color="white"/>
<stop offset="1" stop-color="white" stop-opacity="0"/>
</linearGradient>
</defs>
</svg>
