<svg width="3338" height="154" viewBox="0 0 3338 154" fill="none" xmlns="http://www.w3.org/2000/svg">
<path d="M0 153.172V16.8667L4.1725 18.2618L8.345 19.6691L12.5175 21.0885L16.69 22.5201L20.8625 23.9455L25.035 25.371L29.2075 26.7843L33.38 28.1855L37.5525 29.5564L41.725 30.9091L45.8975 32.2254L50.07 33.5053L54.2425 34.7427L58.415 35.9316L62.5875 37.072L66.76 38.1517L70.9325 39.1768L75.105 40.1292L79.2775 41.0208L83.45 41.8337L87.6225 42.5737L91.795 43.2349L95.9675 43.8172L100.14 44.3146L104.312 44.7271L108.485 45.0546L112.657 45.2912L116.83 45.4428L121.002 45.5035L125.175 45.4732L129.347 45.3518L133.52 45.1456L137.692 44.8484L141.865 44.4602L146.037 43.9931L150.21 43.4411L154.382 42.8042L158.555 42.0884L162.727 41.2999L166.9 40.4324L171.072 39.4983L175.245 38.5035L179.418 37.4359L183.59 36.3198L187.762 35.143L191.935 33.9238L196.107 32.6561L200.28 31.3519L204.452 30.0114L208.625 28.6465L212.797 27.2514L216.97 25.8441L221.142 24.4247L225.315 22.9932L229.487 21.5677L233.66 20.1423L237.832 18.7289L242.005 17.3277L246.177 15.9568L250.35 14.6041L254.522 13.2879L258.695 12.008L262.867 10.7705L267.04 9.58164L271.212 8.44126L275.385 7.36155L279.557 6.33642L283.73 5.38409L287.902 4.49241L292.075 3.67959L296.247 2.93956L300.42 2.27839L304.592 1.69607L308.765 1.19867L312.937 0.786191L317.11 0.45864L321.282 0.222069L325.455 0.070423L329.627 0.00976562L333.8 0.0400966L337.973 0.161411L342.145 0.367647L346.317 0.664876L350.49 1.05309L354.662 1.52016L358.835 2.07214L363.007 2.70906L367.18 3.42483L371.352 4.21338L375.525 5.0808L379.698 6.01493L383.87 7.00973L388.042 8.07732L392.215 9.19343L396.387 10.3702L400.56 11.5894L404.732 12.8572L408.905 14.1613L413.077 15.5019L417.25 16.8667L421.423 18.2618L425.595 19.6691L429.767 21.0885L433.94 22.5201L438.112 23.9455L442.285 25.371L446.457 26.7843L450.63 28.1855L454.802 29.5564L458.975 30.9091L463.147 32.2254L467.32 33.5053L471.492 34.7427L475.665 35.9316L479.837 37.072L484.01 38.1517L488.182 39.1768L492.355 40.1292L496.527 41.0208L500.7 41.8337L504.872 42.5737L509.045 43.2349L513.217 43.8172L517.39 44.3146L521.562 44.7271L525.735 45.0546L529.907 45.2912L534.08 45.4428L538.252 45.5035L542.425 45.4732L546.597 45.3518L550.77 45.1456L554.942 44.8484L559.115 44.4602L563.287 43.9931L567.46 43.4411L571.632 42.8042L575.805 42.0884L579.977 41.2999L584.15 40.4324L588.322 39.4983L592.495 38.5035L596.667 37.4359L600.84 36.3198L605.012 35.143L609.185 33.9238L613.357 32.6561L617.53 31.3519L621.702 30.0114L625.875 28.6465L630.047 27.2514L634.22 25.8441L638.392 24.4247L642.565 22.9932L646.737 21.5677L650.91 20.1423L655.082 18.7289L659.255 17.3277L663.427 15.9568L667.6 14.6041L671.772 13.2879L675.945 12.008L680.117 10.7705L684.29 9.58164L688.462 8.44126L692.635 7.36155L696.808 6.33642L700.98 5.38409L705.152 4.49241L709.325 3.67959L713.497 2.93956L717.67 2.27839L721.842 1.69607L726.015 1.19867L730.187 0.786191L734.36 0.45864L738.533 0.222069L742.705 0.070423L746.877 0.00976562L751.05 0.0400966L755.222 0.161411L759.395 0.367647L763.567 0.664876L767.74 1.05309L771.912 1.52016L776.085 2.07214L780.258 2.70906L784.43 3.42483L788.602 4.21338L792.775 5.0808L796.947 6.01493L801.12 7.00973L805.292 8.07732L809.465 9.19343L813.637 10.3702L817.81 11.5894L821.983 12.8572L826.155 14.1613L830.327 15.5019L834.5 16.8667L838.672 18.2618L842.845 19.6691L847.017 21.0885L851.19 22.5201L855.362 23.9455L859.535 25.371L863.708 26.7843L867.88 28.1855L872.052 29.5564L876.225 30.9091L880.397 32.2254L884.57 33.5053L888.742 34.7427L892.915 35.9316L897.087 37.072L901.26 38.1517L905.432 39.1768L909.605 40.1292L913.777 41.0208L917.95 41.8337L922.122 42.5737L926.295 43.2349L930.467 43.8172L934.64 44.3146L938.812 44.7271L942.985 45.0546L947.157 45.2912L951.33 45.4428L955.502 45.5035L959.675 45.4732L963.847 45.3518L968.02 45.1456L972.192 44.8484L976.365 44.4602L980.537 43.9931L984.71 43.4411L988.882 42.8042L993.055 42.0884L997.227 41.2999L1001.4 40.4324L1005.57 39.4983L1009.74 38.5035L1013.92 37.4359L1018.09 36.3198L1022.26 35.143L1026.43 33.9238L1030.61 32.6561L1034.78 31.3519L1038.95 30.0114L1043.12 28.6465L1047.3 27.2514L1051.47 25.8441L1055.64 24.4247L1059.81 22.9932L1063.99 21.5677L1068.16 20.1423L1072.33 18.7289L1076.5 17.3277L1080.68 15.9568L1084.85 14.6041L1089.02 13.2879L1093.19 12.008L1097.37 10.7705L1101.54 9.58164L1105.71 8.44126L1109.88 7.36155L1114.06 6.33642L1118.23 5.38409L1122.4 4.49241L1126.57 3.67959L1130.75 2.93956L1134.92 2.27839L1139.09 1.69607L1143.26 1.19867L1147.44 0.786191L1151.61 0.45864L1155.78 0.222069L1159.95 0.070423L1164.13 0.00976562L1168.3 0.0400966L1172.47 0.161411L1176.64 0.367647L1180.82 0.664876L1184.99 1.05309L1189.16 1.52016L1193.33 2.07214L1197.51 2.70906L1201.68 3.42483L1205.85 4.21338L1210.02 5.0808L1214.2 6.01493L1218.37 7.00973L1222.54 8.07732L1226.71 9.19343L1230.89 10.3702L1235.06 11.5894L1239.23 12.8572L1243.4 14.1613L1247.58 15.5019L1251.75 16.8667L1255.92 18.2618L1260.09 19.6691L1264.27 21.0885L1268.44 22.5201L1272.61 23.9455L1276.78 25.371L1280.96 26.7843L1285.13 28.1855L1289.3 29.5564L1293.47 30.9091L1297.65 32.2254L1301.82 33.5053L1305.99 34.7427L1310.16 35.9316L1314.34 37.072L1318.51 38.1517L1322.68 39.1768L1326.85 40.1292L1331.03 41.0208L1335.2 41.8337L1339.37 42.5737L1343.54 43.2349L1347.72 43.8172L1351.89 44.3146L1356.06 44.7271L1360.23 45.0546L1364.41 45.2912L1368.58 45.4428L1372.75 45.5035L1376.92 45.4732L1381.1 45.3518L1385.27 45.1456L1389.44 44.8484L1393.62 44.4602L1397.79 43.9931L1401.96 43.4411L1406.13 42.8042L1410.3 42.0884L1414.48 41.2999L1418.65 40.4324L1422.82 39.4983L1426.99 38.5035L1431.17 37.4359L1435.34 36.3198L1439.51 35.143L1443.68 33.9238L1447.86 32.6561L1452.03 31.3519L1456.2 30.0114L1460.37 28.6465L1464.55 27.2514L1468.72 25.8441L1472.89 24.4247L1477.07 22.9932L1481.24 21.5677L1485.41 20.1423L1489.58 18.7289L1493.75 17.3277L1497.93 15.9568L1502.1 14.6041L1506.27 13.2879L1510.44 12.008L1514.62 10.7705L1518.79 9.58164L1522.96 8.44126L1527.13 7.36155L1531.31 6.33642L1535.48 5.38409L1539.65 4.49241L1543.82 3.67959L1548 2.93956L1552.17 2.27839L1556.34 1.69607L1560.52 1.19867L1564.69 0.786191L1568.86 0.45864L1573.03 0.222069L1577.2 0.070423L1581.38 0.00976562L1585.55 0.0400966L1589.72 0.161411L1593.89 0.367647L1598.07 0.664876L1602.24 1.05309L1606.41 1.52016L1610.58 2.07214L1614.76 2.70906L1618.93 3.42483L1623.1 4.21338L1627.27 5.0808L1631.45 6.01493L1635.62 7.00973L1639.79 8.07732L1643.97 9.19343L1648.14 10.3702L1652.31 11.5894L1656.48 12.8572L1660.65 14.1613L1664.83 15.5019L1669 16.8667V153.172H0Z" fill="#00ADFE"/>
<path d="M1669 153.162V16.8569L1673.17 18.2521L1677.34 19.6594L1681.52 21.0788L1685.69 22.5103L1689.86 23.9358L1694.04 25.3612L1698.21 26.7746L1702.38 28.1758L1706.55 29.5467L1710.72 30.8993L1714.9 32.2156L1719.07 33.4955L1723.24 34.7329L1727.41 35.9218L1731.59 37.0622L1735.76 38.1419L1739.93 39.1671L1744.1 40.1194L1748.28 41.0111L1752.45 41.8239L1756.62 42.5639L1760.79 43.2251L1764.97 43.8074L1769.14 44.3048L1773.31 44.7173L1777.48 45.0448L1781.66 45.2814L1785.83 45.4331L1790 45.4937L1794.17 45.4634L1798.35 45.3421L1802.52 45.1358L1806.69 44.8386L1810.86 44.4504L1815.04 43.9833L1819.21 43.4313L1823.38 42.7944L1827.55 42.0787L1831.73 41.2901L1835.9 40.4227L1840.07 39.4885L1844.24 38.4938L1848.42 37.4262L1852.59 36.3101L1856.76 35.1333L1860.93 33.9141L1865.11 32.6463L1869.28 31.3421L1873.45 30.0016L1877.62 28.6368L1881.8 27.2416L1885.97 25.8344L1890.14 24.415L1894.31 22.9834L1898.49 21.558L1902.66 20.1325L1906.83 18.7191L1911 17.3179L1915.18 15.9471L1919.35 14.5944L1923.52 13.2781L1927.69 11.9982L1931.87 10.7608L1936.04 9.57188L1940.21 8.4315L1944.38 7.35178L1948.56 6.32665L1952.73 5.37432L1956.9 4.48265L1961.07 3.66983L1965.25 2.9298L1969.42 2.26862L1973.59 1.6863L1977.76 1.18891L1981.94 0.776425L1986.11 0.448875L1990.28 0.212303L1994.45 0.0606574L1998.63 0L2002.8 0.030331L2006.97 0.151646L2011.14 0.357882L2015.32 0.655111L2019.49 1.04332L2023.66 1.51039L2027.84 2.06238L2032.01 2.69929L2036.18 3.41506L2040.35 4.20361L2044.52 5.07103L2048.7 6.00517L2052.87 6.99996L2057.04 8.06755L2061.21 9.18366L2065.39 10.3604L2069.56 11.5797L2073.73 12.8474L2077.9 14.1516L2082.08 15.4921L2086.25 16.8569L2090.42 18.2521L2094.59 19.6594L2098.77 21.0788L2102.94 22.5103L2107.11 23.9358L2111.28 25.3612L2115.46 26.7746L2119.63 28.1758L2123.8 29.5467L2127.97 30.8993L2132.15 32.2156L2136.32 33.4955L2140.49 34.7329L2144.66 35.9218L2148.84 37.0622L2153.01 38.1419L2157.18 39.1671L2161.35 40.1194L2165.53 41.0111L2169.7 41.8239L2173.87 42.5639L2178.04 43.2251L2182.22 43.8074L2186.39 44.3048L2190.56 44.7173L2194.73 45.0448L2198.91 45.2814L2203.08 45.4331L2207.25 45.4937L2211.42 45.4634L2215.6 45.3421L2219.77 45.1358L2223.94 44.8386L2228.11 44.4504L2232.29 43.9833L2236.46 43.4313L2240.63 42.7944L2244.8 42.0787L2248.98 41.2901L2253.15 40.4227L2257.32 39.4885L2261.49 38.4938L2265.67 37.4262L2269.84 36.3101L2274.01 35.1333L2278.18 33.9141L2282.36 32.6463L2286.53 31.3421L2290.7 30.0016L2294.87 28.6368L2299.05 27.2416L2303.22 25.8344L2307.39 24.415L2311.56 22.9834L2315.74 21.558L2319.91 20.1325L2324.08 18.7191L2328.25 17.3179L2332.43 15.9471L2336.6 14.5944L2340.77 13.2781L2344.95 11.9982L2349.12 10.7608L2353.29 9.57188L2357.46 8.4315L2361.63 7.35178L2365.81 6.32665L2369.98 5.37432L2374.15 4.48265L2378.32 3.66983L2382.5 2.9298L2386.67 2.26862L2390.84 1.6863L2395.01 1.18891L2399.19 0.776425L2403.36 0.448875L2407.53 0.212303L2411.7 0.0606574L2415.88 0L2420.05 0.030331L2424.22 0.151646L2428.4 0.357882L2432.57 0.655111L2436.74 1.04332L2440.91 1.51039L2445.08 2.06238L2449.26 2.69929L2453.43 3.41506L2457.6 4.20361L2461.77 5.07103L2465.95 6.00517L2470.12 6.99996L2474.29 8.06755L2478.46 9.18366L2482.64 10.3604L2486.81 11.5797L2490.98 12.8474L2495.15 14.1516L2499.33 15.4921L2503.5 16.8569L2507.67 18.2521L2511.85 19.6594L2516.02 21.0788L2520.19 22.5103L2524.36 23.9358L2528.53 25.3612L2532.71 26.7746L2536.88 28.1758L2541.05 29.5467L2545.22 30.8993L2549.4 32.2156L2553.57 33.4955L2557.74 34.7329L2561.91 35.9218L2566.09 37.0622L2570.26 38.1419L2574.43 39.1671L2578.6 40.1194L2582.78 41.0111L2586.95 41.8239L2591.12 42.5639L2595.29 43.2251L2599.47 43.8074L2603.64 44.3048L2607.81 44.7173L2611.98 45.0448L2616.16 45.2814L2620.33 45.4331L2624.5 45.4937L2628.67 45.4634L2632.85 45.3421L2637.02 45.1358L2641.19 44.8386L2645.36 44.4504L2649.54 43.9833L2653.71 43.4313L2657.88 42.7944L2662.05 42.0787L2666.23 41.2901L2670.4 40.4227L2674.57 39.4885L2678.74 38.4938L2682.92 37.4262L2687.09 36.3101L2691.26 35.1333L2695.43 33.9141L2699.61 32.6463L2703.78 31.3421L2707.95 30.0016L2712.12 28.6368L2716.3 27.2416L2720.47 25.8344L2724.64 24.415L2728.81 22.9834L2732.99 21.558L2737.16 20.1325L2741.33 18.7191L2745.5 17.3179L2749.68 15.9471L2753.85 14.5944L2758.02 13.2781L2762.19 11.9982L2766.37 10.7608L2770.54 9.57188L2774.71 8.4315L2778.88 7.35178L2783.06 6.32665L2787.23 5.37432L2791.4 4.48265L2795.57 3.66983L2799.75 2.9298L2803.92 2.26862L2808.09 1.6863L2812.26 1.18891L2816.44 0.776425L2820.61 0.448875L2824.78 0.212303L2828.95 0.0606574L2833.13 0L2837.3 0.030331L2841.47 0.151646L2845.64 0.357882L2849.82 0.655111L2853.99 1.04332L2858.16 1.51039L2862.33 2.06238L2866.51 2.69929L2870.68 3.41506L2874.85 4.20361L2879.02 5.07103L2883.2 6.00517L2887.37 6.99996L2891.54 8.06755L2895.71 9.18366L2899.89 10.3604L2904.06 11.5797L2908.23 12.8474L2912.4 14.1516L2916.58 15.4921L2920.75 16.8569L2924.92 18.2521L2929.09 19.6594L2933.27 21.0788L2937.44 22.5103L2941.61 23.9358L2945.78 25.3612L2949.96 26.7746L2954.13 28.1758L2958.3 29.5467L2962.47 30.8993L2966.65 32.2156L2970.82 33.4955L2974.99 34.7329L2979.16 35.9218L2983.34 37.0622L2987.51 38.1419L2991.68 39.1671L2995.85 40.1194L3000.03 41.0111L3004.2 41.8239L3008.37 42.5639L3012.54 43.2251L3016.72 43.8074L3020.89 44.3048L3025.06 44.7173L3029.23 45.0448L3033.41 45.2814L3037.58 45.4331L3041.75 45.4937L3045.92 45.4634L3050.1 45.3421L3054.27 45.1358L3058.44 44.8386L3062.62 44.4504L3066.79 43.9833L3070.96 43.4313L3075.13 42.7944L3079.3 42.0787L3083.48 41.2901L3087.65 40.4227L3091.82 39.4885L3095.99 38.4938L3100.17 37.4262L3104.34 36.3101L3108.51 35.1333L3112.68 33.9141L3116.86 32.6463L3121.03 31.3421L3125.2 30.0016L3129.37 28.6368L3133.55 27.2416L3137.72 25.8344L3141.89 24.415L3146.07 22.9834L3150.24 21.558L3154.41 20.1325L3158.58 18.7191L3162.75 17.3179L3166.93 15.9471L3171.1 14.5944L3175.27 13.2781L3179.44 11.9982L3183.62 10.7608L3187.79 9.57188L3191.96 8.4315L3196.13 7.35178L3200.31 6.32665L3204.48 5.37432L3208.65 4.48265L3212.82 3.66983L3217 2.9298L3221.17 2.26862L3225.34 1.6863L3229.52 1.18891L3233.69 0.776425L3237.86 0.448875L3242.03 0.212303L3246.2 0.0606574L3250.38 0L3254.55 0.030331L3258.72 0.151646L3262.89 0.357882L3267.07 0.655111L3271.24 1.04332L3275.41 1.51039L3279.58 2.06238L3283.76 2.69929L3287.93 3.41506L3292.1 4.20361L3296.27 5.07103L3300.45 6.00517L3304.62 6.99996L3308.79 8.06755L3312.97 9.18366L3317.14 10.3604L3321.31 11.5797L3325.48 12.8474L3329.65 14.1516L3333.83 15.4921L3338 16.8569V153.162H1669Z" fill="#00ADFE"/>
</svg>
