<svg width="3375" height="164" viewBox="0 0 3375 164" fill="none" xmlns="http://www.w3.org/2000/svg">
<path d="M0 163.173V17.9587L4.21875 19.445L8.4375 20.9443L12.6563 22.4565L16.875 23.9816L21.0938 25.5002L25.3125 27.0188L29.5312 28.5245L33.75 30.0173L37.9687 31.4778L42.1875 32.9189L46.4063 34.3212L50.625 35.6848L54.8437 37.0031L59.0625 38.2697L63.2812 39.4846L67.5 40.6349L71.7188 41.727L75.9375 42.7416L80.1562 43.6915L84.375 44.5575L88.5937 45.3459L92.8125 46.0503L97.0312 46.6706L101.25 47.2005L105.469 47.64L109.687 47.9889L113.906 48.241L118.125 48.4025L122.344 48.4672L126.562 48.4348L130.781 48.3056L135 48.0859L139.219 47.7692L143.438 47.3556L147.656 46.858L151.875 46.27L156.094 45.5914L160.312 44.8289L164.531 43.9888L168.75 43.0647L172.969 42.0695L177.187 41.0097L181.406 39.8723L185.625 38.6833L189.844 37.4296L194.062 36.1307L198.281 34.78L202.5 33.3906L206.719 31.9625L210.938 30.5085L215.156 29.0221L219.375 27.5229L223.594 26.0107L227.813 24.4856L232.031 22.967L236.25 21.4483L240.469 19.9426L244.688 18.4498L248.906 16.9894L253.125 15.5483L257.344 14.1459L261.562 12.7824L265.781 11.4641L270 10.1975L274.219 8.98258L278.437 7.83229L282.656 6.74016L286.875 5.72559L291.094 4.77563L295.312 3.90969L299.531 3.12129L303.75 2.4169L307.969 1.79652L312.188 1.26661L316.406 0.827172L320.625 0.478213L324.844 0.226179L329.063 0.0646219L333.281 0L337.5 0.0323134L341.719 0.161557L345.937 0.381273L350.156 0.697928L354.375 1.11151L358.594 1.60911L362.813 2.19717L367.031 2.87572L371.25 3.63827L375.469 4.47836L379.688 5.40247L383.906 6.39766L388.125 7.45748L392.344 8.59484L396.562 9.7839L400.781 11.0376L405 12.3365L409.219 13.6871L413.438 15.0765L417.656 16.5047L421.875 17.9587L426.094 19.445L430.312 20.9443L434.531 22.4565L438.75 23.9816L442.969 25.5002L447.188 27.0188L451.406 28.5245L455.625 30.0173L459.844 31.4778L464.062 32.9189L468.281 34.3212L472.5 35.6848L476.719 37.0031L480.937 38.2697L485.156 39.4846L489.375 40.6349L493.594 41.727L497.813 42.7416L502.031 43.6915L506.25 44.5575L510.469 45.3459L514.687 46.0503L518.906 46.6706L523.125 47.2005L527.344 47.64L531.563 47.9889L535.781 48.241L540 48.4025L544.219 48.4672L548.438 48.4348L552.656 48.3056L556.875 48.0859L561.094 47.7692L565.312 47.3556L569.531 46.858L573.75 46.27L577.969 45.5914L582.188 44.8289L586.406 43.9888L590.625 43.0647L594.844 42.0695L599.062 41.0097L603.281 39.8723L607.5 38.6833L611.719 37.4296L615.938 36.1307L620.156 34.78L624.375 33.3906L628.594 31.9625L632.812 30.5085L637.031 29.0221L641.25 27.5229L645.469 26.0107L649.687 24.4856L653.906 22.967L658.125 21.4483L662.344 19.9426L666.563 18.4498L670.781 16.9894L675 15.5483L679.219 14.1459L683.438 12.7824L687.656 11.4641L691.875 10.1975L696.094 8.98258L700.313 7.83229L704.531 6.74016L708.75 5.72559L712.969 4.77563L717.188 3.90969L721.406 3.12129L725.625 2.4169L729.844 1.79652L734.062 1.26661L738.281 0.827172L742.5 0.478213L746.719 0.226179L750.937 0.0646219L755.156 0L759.375 0.0323134L763.594 0.161557L767.813 0.381273L772.031 0.697928L776.25 1.11151L780.469 1.60911L784.688 2.19717L788.906 2.87572L793.125 3.63827L797.344 4.47836L801.562 5.40247L805.781 6.39766L810 7.45748L814.219 8.59484L818.437 9.7839L822.656 11.0376L826.875 12.3365L831.094 13.6871L835.312 15.0765L839.531 16.5047L843.75 17.9587L847.969 19.445L852.188 20.9443L856.406 22.4565L860.625 23.9816L864.844 25.5002L869.063 27.0188L873.281 28.5245L877.5 30.0173L881.719 31.4778L885.938 32.9189L890.156 34.3212L894.375 35.6848L898.594 37.0031L902.812 38.2697L907.031 39.4846L911.25 40.6349L915.469 41.727L919.687 42.7416L923.906 43.6915L928.125 44.5575L932.344 45.3459L936.563 46.0503L940.781 46.6706L945 47.2005L949.219 47.64L953.438 47.9889L957.656 48.241L961.875 48.4025L966.094 48.4672L970.312 48.4348L974.531 48.3056L978.75 48.0859L982.969 47.7692L987.187 47.3556L991.406 46.858L995.625 46.27L999.844 45.5914L1004.06 44.8289L1008.28 43.9888L1012.5 43.0647L1016.72 42.0695L1020.94 41.0097L1025.16 39.8723L1029.37 38.6833L1033.59 37.4296L1037.81 36.1307L1042.03 34.78L1046.25 33.3906L1050.47 31.9625L1054.69 30.5085L1058.91 29.0221L1063.13 27.5229L1067.34 26.0107L1071.56 24.4856L1075.78 22.967L1080 21.4483L1084.22 19.9426L1088.44 18.4498L1092.66 16.9894L1096.88 15.5483L1101.09 14.1459L1105.31 12.7824L1109.53 11.4641L1113.75 10.1975L1117.97 8.98258L1122.19 7.83229L1126.41 6.74016L1130.62 5.72559L1134.84 4.77563L1139.06 3.90969L1143.28 3.12129L1147.5 2.4169L1151.72 1.79652L1155.94 1.26661L1160.16 0.827172L1164.38 0.478213L1168.59 0.226179L1172.81 0.0646219L1177.03 0L1181.25 0.0323134L1185.47 0.161557L1189.69 0.381273L1193.91 0.697928L1198.12 1.11151L1202.34 1.60911L1206.56 2.19717L1210.78 2.87572L1215 3.63827L1219.22 4.47836L1223.44 5.40247L1227.66 6.39766L1231.88 7.45748L1236.09 8.59484L1240.31 9.7839L1244.53 11.0376L1248.75 12.3365L1252.97 13.6871L1257.19 15.0765L1261.41 16.5047L1265.62 17.9587L1269.84 19.445L1274.06 20.9443L1278.28 22.4565L1282.5 23.9816L1286.72 25.5002L1290.94 27.0188L1295.16 28.5245L1299.37 30.0173L1303.59 31.4778L1307.81 32.9189L1312.03 34.3212L1316.25 35.6848L1320.47 37.0031L1324.69 38.2697L1328.91 39.4846L1333.13 40.6349L1337.34 41.727L1341.56 42.7416L1345.78 43.6915L1350 44.5575L1354.22 45.3459L1358.44 46.0503L1362.66 46.6706L1366.88 47.2005L1371.09 47.64L1375.31 47.9889L1379.53 48.241L1383.75 48.4025L1387.97 48.4672L1392.19 48.4348L1396.41 48.3056L1400.63 48.0859L1404.84 47.7692L1409.06 47.3556L1413.28 46.858L1417.5 46.27L1421.72 45.5914L1425.94 44.8289L1430.16 43.9888L1434.38 43.0647L1438.59 42.0695L1442.81 41.0097L1447.03 39.8723L1451.25 38.6833L1455.47 37.4296L1459.69 36.1307L1463.91 34.78L1468.12 33.3906L1472.34 31.9625L1476.56 30.5085L1480.78 29.0221L1485 27.5229L1489.22 26.0107L1493.44 24.4856L1497.66 22.967L1501.87 21.4483L1506.09 19.9426L1510.31 18.4498L1514.53 16.9894L1518.75 15.5483L1522.97 14.1459L1527.19 12.7824L1531.41 11.4641L1535.63 10.1975L1539.84 8.98258L1544.06 7.83229L1548.28 6.74016L1552.5 5.72559L1556.72 4.77563L1560.94 3.90969L1565.16 3.12129L1569.38 2.4169L1573.59 1.79652L1577.81 1.26661L1582.03 0.827172L1586.25 0.478213L1590.47 0.226179L1594.69 0.0646219L1598.91 0L1603.12 0.0323134L1607.34 0.161557L1611.56 0.381273L1615.78 0.697928L1620 1.11151L1624.22 1.60911L1628.44 2.19717L1632.66 2.87572L1636.87 3.63827L1641.09 4.47836L1645.31 5.40247L1649.53 6.39766L1653.75 7.45748L1657.97 8.59484L1662.19 9.7839L1666.41 11.0376L1670.62 12.3365L1674.84 13.6871L1679.06 15.0765L1683.28 16.5047L1687.5 17.9587V163.173H0Z" fill="#87E2FF"/>
<path d="M1687.5 163.173V17.9587L1691.72 19.445L1695.94 20.9443L1700.16 22.4565L1704.38 23.9816L1708.59 25.5002L1712.81 27.0188L1717.03 28.5245L1721.25 30.0173L1725.47 31.4778L1729.69 32.9189L1733.91 34.3212L1738.13 35.6848L1742.34 37.0031L1746.56 38.2697L1750.78 39.4846L1755 40.6349L1759.22 41.727L1763.44 42.7416L1767.66 43.6915L1771.88 44.5575L1776.09 45.3459L1780.31 46.0503L1784.53 46.6706L1788.75 47.2005L1792.97 47.64L1797.19 47.9889L1801.41 48.241L1805.62 48.4025L1809.84 48.4672L1814.06 48.4348L1818.28 48.3056L1822.5 48.0859L1826.72 47.7692L1830.94 47.3556L1835.16 46.858L1839.37 46.27L1843.59 45.5914L1847.81 44.8289L1852.03 43.9888L1856.25 43.0647L1860.47 42.0695L1864.69 41.0097L1868.91 39.8723L1873.13 38.6833L1877.34 37.4296L1881.56 36.1307L1885.78 34.78L1890 33.3906L1894.22 31.9625L1898.44 30.5085L1902.66 29.0221L1906.87 27.5229L1911.09 26.0107L1915.31 24.4856L1919.53 22.967L1923.75 21.4483L1927.97 19.9426L1932.19 18.4498L1936.41 16.9894L1940.62 15.5483L1944.84 14.1459L1949.06 12.7824L1953.28 11.4641L1957.5 10.1975L1961.72 8.98258L1965.94 7.83229L1970.16 6.74016L1974.38 5.72559L1978.59 4.77563L1982.81 3.90969L1987.03 3.12129L1991.25 2.4169L1995.47 1.79652L1999.69 1.26661L2003.91 0.827172L2008.12 0.478213L2012.34 0.226179L2016.56 0.0646219L2020.78 0L2025 0.0323134L2029.22 0.161557L2033.44 0.381273L2037.66 0.697928L2041.87 1.11151L2046.09 1.60911L2050.31 2.19717L2054.53 2.87572L2058.75 3.63827L2062.97 4.47836L2067.19 5.40247L2071.41 6.39766L2075.62 7.45748L2079.84 8.59484L2084.06 9.7839L2088.28 11.0376L2092.5 12.3365L2096.72 13.6871L2100.94 15.0765L2105.16 16.5047L2109.38 17.9587L2113.59 19.445L2117.81 20.9443L2122.03 22.4565L2126.25 23.9816L2130.47 25.5002L2134.69 27.0188L2138.91 28.5245L2143.13 30.0173L2147.34 31.4778L2151.56 32.9189L2155.78 34.3212L2160 35.6848L2164.22 37.0031L2168.44 38.2697L2172.66 39.4846L2176.88 40.6349L2181.09 41.727L2185.31 42.7416L2189.53 43.6915L2193.75 44.5575L2197.97 45.3459L2202.19 46.0503L2206.41 46.6706L2210.62 47.2005L2214.84 47.64L2219.06 47.9889L2223.28 48.241L2227.5 48.4025L2231.72 48.4672L2235.94 48.4348L2240.16 48.3056L2244.37 48.0859L2248.59 47.7692L2252.81 47.3556L2257.03 46.858L2261.25 46.27L2265.47 45.5914L2269.69 44.8289L2273.91 43.9888L2278.12 43.0647L2282.34 42.0695L2286.56 41.0097L2290.78 39.8723L2295 38.6833L2299.22 37.4296L2303.44 36.1307L2307.66 34.78L2311.88 33.3906L2316.09 31.9625L2320.31 30.5085L2324.53 29.0221L2328.75 27.5229L2332.97 26.0107L2337.19 24.4856L2341.41 22.967L2345.63 21.4483L2349.84 19.9426L2354.06 18.4498L2358.28 16.9894L2362.5 15.5483L2366.72 14.1459L2370.94 12.7824L2375.16 11.4641L2379.37 10.1975L2383.59 8.98258L2387.81 7.83229L2392.03 6.74016L2396.25 5.72559L2400.47 4.77563L2404.69 3.90969L2408.91 3.12129L2413.13 2.4169L2417.34 1.79652L2421.56 1.26661L2425.78 0.827172L2430 0.478213L2434.22 0.226179L2438.44 0.0646219L2442.66 0L2446.88 0.0323134L2451.09 0.161557L2455.31 0.381273L2459.53 0.697928L2463.75 1.11151L2467.97 1.60911L2472.19 2.19717L2476.41 2.87572L2480.62 3.63827L2484.84 4.47836L2489.06 5.40247L2493.28 6.39766L2497.5 7.45748L2501.72 8.59484L2505.94 9.7839L2510.16 11.0376L2514.38 12.3365L2518.59 13.6871L2522.81 15.0765L2527.03 16.5047L2531.25 17.9587L2535.47 19.445L2539.69 20.9443L2543.91 22.4565L2548.12 23.9816L2552.34 25.5002L2556.56 27.0188L2560.78 28.5245L2565 30.0173L2569.22 31.4778L2573.44 32.9189L2577.66 34.3212L2581.88 35.6848L2586.09 37.0031L2590.31 38.2697L2594.53 39.4846L2598.75 40.6349L2602.97 41.727L2607.19 42.7416L2611.41 43.6915L2615.62 44.5575L2619.84 45.3459L2624.06 46.0503L2628.28 46.6706L2632.5 47.2005L2636.72 47.64L2640.94 47.9889L2645.16 48.241L2649.37 48.4025L2653.59 48.4672L2657.81 48.4348L2662.03 48.3056L2666.25 48.0859L2670.47 47.7692L2674.69 47.3556L2678.91 46.858L2683.13 46.27L2687.34 45.5914L2691.56 44.8289L2695.78 43.9888L2700 43.0647L2704.22 42.0695L2708.44 41.0097L2712.66 39.8723L2716.87 38.6833L2721.09 37.4296L2725.31 36.1307L2729.53 34.78L2733.75 33.3906L2737.97 31.9625L2742.19 30.5085L2746.41 29.0221L2750.63 27.5229L2754.84 26.0107L2759.06 24.4856L2763.28 22.967L2767.5 21.4483L2771.72 19.9426L2775.94 18.4498L2780.16 16.9894L2784.38 15.5483L2788.59 14.1459L2792.81 12.7824L2797.03 11.4641L2801.25 10.1975L2805.47 8.98258L2809.69 7.83229L2813.91 6.74016L2818.12 5.72559L2822.34 4.77563L2826.56 3.90969L2830.78 3.12129L2835 2.4169L2839.22 1.79652L2843.44 1.26661L2847.66 0.827172L2851.88 0.478213L2856.09 0.226179L2860.31 0.0646219L2864.53 0L2868.75 0.0323134L2872.97 0.161557L2877.19 0.381273L2881.41 0.697928L2885.62 1.11151L2889.84 1.60911L2894.06 2.19717L2898.28 2.87572L2902.5 3.63827L2906.72 4.47836L2910.94 5.40247L2915.16 6.39766L2919.38 7.45748L2923.59 8.59484L2927.81 9.7839L2932.03 11.0376L2936.25 12.3365L2940.47 13.6871L2944.69 15.0765L2948.91 16.5047L2953.12 17.9587L2957.34 19.445L2961.56 20.9443L2965.78 22.4565L2970 23.9816L2974.22 25.5002L2978.44 27.0188L2982.66 28.5245L2986.87 30.0173L2991.09 31.4778L2995.31 32.9189L2999.53 34.3212L3003.75 35.6848L3007.97 37.0031L3012.19 38.2697L3016.41 39.4846L3020.63 40.6349L3024.84 41.727L3029.06 42.7416L3033.28 43.6915L3037.5 44.5575L3041.72 45.3459L3045.94 46.0503L3050.16 46.6706L3054.38 47.2005L3058.59 47.64L3062.81 47.9889L3067.03 48.241L3071.25 48.4025L3075.47 48.4672L3079.69 48.4348L3083.91 48.3056L3088.13 48.0859L3092.34 47.7692L3096.56 47.3556L3100.78 46.858L3105 46.27L3109.22 45.5914L3113.44 44.8289L3117.66 43.9888L3121.88 43.0647L3126.09 42.0695L3130.31 41.0097L3134.53 39.8723L3138.75 38.6833L3142.97 37.4296L3147.19 36.1307L3151.41 34.78L3155.62 33.3906L3159.84 31.9625L3164.06 30.5085L3168.28 29.0221L3172.5 27.5229L3176.72 26.0107L3180.94 24.4856L3185.16 22.967L3189.37 21.4483L3193.59 19.9426L3197.81 18.4498L3202.03 16.9894L3206.25 15.5483L3210.47 14.1459L3214.69 12.7824L3218.91 11.4641L3223.13 10.1975L3227.34 8.98258L3231.56 7.83229L3235.78 6.74016L3240 5.72559L3244.22 4.77563L3248.44 3.90969L3252.66 3.12129L3256.88 2.4169L3261.09 1.79652L3265.31 1.26661L3269.53 0.827172L3273.75 0.478213L3277.97 0.226179L3282.19 0.0646219L3286.41 0L3290.62 0.0323134L3294.84 0.161557L3299.06 0.381273L3303.28 0.697928L3307.5 1.11151L3311.72 1.60911L3315.94 2.19717L3320.16 2.87572L3324.37 3.63827L3328.59 4.47836L3332.81 5.40247L3337.03 6.39766L3341.25 7.45748L3345.47 8.59484L3349.69 9.7839L3353.91 11.0376L3358.12 12.3365L3362.34 13.6871L3366.56 15.0765L3370.78 16.5047L3375 17.9587V163.173H1687.5Z" fill="#87E2FF"/>
</svg>
