<svg width="486" height="305" viewBox="0 0 486 305" fill="none" xmlns="http://www.w3.org/2000/svg">
<path d="M1.94241 1.39626C1.11459 1.42807 0.469298 2.12494 0.501106 2.95275C0.532915 3.78057 1.22978 4.42586 2.05759 4.39405L1.94241 1.39626ZM324.623 297.299C324.294 298.059 324.644 298.942 325.404 299.271L337.794 304.632C338.555 304.961 339.438 304.611 339.767 303.851C340.096 303.091 339.746 302.208 338.986 301.879L327.972 297.113L332.737 286.1C333.066 285.34 332.717 284.457 331.956 284.128C331.196 283.799 330.313 284.149 329.984 284.909L324.623 297.299ZM9.61894 4.1293C10.4469 4.10308 11.0969 3.41058 11.0707 2.58257C11.0445 1.75456 10.352 1.10458 9.52397 1.1308L9.61894 4.1293ZM24.8899 0.742745C24.0616 0.758525 23.403 1.44277 23.4188 2.27105C23.4345 3.09932 24.1188 3.75798 24.9471 3.7422L24.8899 0.742745ZM40.2888 3.53959C41.1172 3.53337 41.7837 2.85677 41.7775 2.02836C41.7712 1.19996 41.0946 0.533452 40.2662 0.539676L40.2888 3.53959ZM55.6523 0.507742C54.8238 0.505047 54.1501 1.17443 54.1474 2.00285C54.1447 2.83128 54.8141 3.50503 55.6425 3.50773L55.6523 0.507742ZM70.9664 3.63625C71.7947 3.64738 72.4753 2.9849 72.4864 2.15655C72.4975 1.32819 71.8351 0.647655 71.0067 0.636518L70.9664 3.63625ZM86.3325 0.917983C85.5043 0.898739 84.8173 1.55453 84.798 2.38273C84.7788 3.21094 85.4346 3.89793 86.2628 3.91717L86.3325 0.917983ZM101.578 4.34645C102.406 4.3736 103.099 3.7244 103.126 2.89642C103.153 2.06843 102.504 1.37521 101.676 1.34806L101.578 4.34645ZM117.031 1.92409C116.203 1.88914 115.504 2.53178 115.469 3.35947C115.434 4.18716 116.076 4.88647 116.904 4.92142L117.031 1.92409ZM132.232 5.64066C133.059 5.68337 133.764 5.04731 133.807 4.21998C133.85 3.39266 133.214 2.68736 132.386 2.64464L132.232 5.64066ZM147.71 3.50789C146.883 3.4574 146.172 4.08679 146.121 4.91368C146.071 5.74056 146.7 6.45182 147.527 6.50231L147.71 3.50789ZM162.815 7.50875C163.641 7.56712 164.358 6.94454 164.417 6.11817C164.475 5.2918 163.852 4.57458 163.026 4.51621L162.815 7.50875ZM178.342 5.67283C177.517 5.60641 176.793 6.22197 176.727 7.04773C176.661 7.87349 177.276 8.59675 178.102 8.66317L178.342 5.67283ZM193.375 9.96847C194.2 10.0432 194.929 9.43491 195.004 8.60986C195.079 7.7848 194.471 7.05541 193.646 6.9807L193.375 9.96847ZM208.929 8.44427C208.105 8.36098 207.369 8.96163 207.286 9.78586C207.202 10.6101 207.803 11.3458 208.627 11.4291L208.929 8.44427ZM223.873 13.0529C224.696 13.1452 225.438 12.5526 225.53 11.7293C225.623 10.9061 225.03 10.1639 224.207 10.0716L223.873 13.0529ZM239.465 11.8695C238.643 11.7678 237.894 12.3519 237.792 13.174C237.691 13.9962 238.275 14.7451 239.097 14.8468L239.465 11.8695ZM254.286 16.8187C255.107 16.9304 255.863 16.3555 255.974 15.5347C256.086 14.7138 255.511 13.9578 254.69 13.8461L254.286 16.8187ZM269.876 16.0122C269.057 15.8898 268.293 16.4548 268.171 17.2741C268.048 18.0934 268.613 18.8569 269.433 18.9792L269.876 16.0122ZM284.592 21.3512C285.409 21.4851 286.181 20.9309 286.315 20.1134C286.449 19.2959 285.894 18.5246 285.077 18.3907L284.592 21.3512ZM300.235 20.9912C299.42 20.8448 298.64 21.3871 298.494 22.2024C298.347 23.0178 298.889 23.7975 299.705 23.9439L300.235 20.9912ZM314.758 26.776C315.571 26.9362 316.36 26.4071 316.52 25.5943C316.68 24.7815 316.151 23.9928 315.338 23.8326L314.758 26.776ZM330.374 26.9385C329.565 26.7632 328.766 27.2775 328.591 28.0872C328.416 28.8968 328.93 29.6953 329.74 29.8706L330.374 26.9385ZM344.637 33.2566C345.443 33.4488 346.252 32.9514 346.444 32.1456C346.636 31.3398 346.139 30.5307 345.333 30.3385L344.637 33.2566ZM360.247 34.0816C359.446 33.8701 358.625 34.3479 358.414 35.1489C358.202 35.9499 358.68 36.7707 359.481 36.9822L360.247 34.0816ZM374.241 41.0939C375.036 41.3275 375.87 40.8726 376.103 40.0778C376.337 39.2831 375.882 38.4493 375.087 38.2157L374.241 41.0939ZM389.795 42.7942C389.008 42.5347 388.16 42.9621 387.9 43.7488C387.641 44.5356 388.068 45.3837 388.855 45.6432L389.795 42.7942ZM403.278 50.707C404.053 50.9973 404.918 50.6036 405.208 49.8277C405.498 49.0518 405.105 48.1874 404.329 47.8972L403.278 50.707ZM418.627 53.6305C417.866 53.303 416.984 53.6542 416.656 54.4151C416.329 55.176 416.68 56.0584 417.441 56.386L418.627 53.6305ZM431.232 62.8132C431.972 63.1871 432.874 62.891 433.248 62.1518C433.622 61.4126 433.326 60.5102 432.587 60.1362L431.232 62.8132ZM446.096 67.6451C445.39 67.2118 444.467 67.433 444.033 68.1391C443.6 68.8452 443.821 69.7688 444.527 70.2021L446.096 67.6451ZM457.059 78.8511C457.711 79.362 458.654 79.2476 459.165 78.5955C459.676 77.9434 459.561 77.0006 458.909 76.4896L457.059 78.8511ZM470.358 86.9792C469.799 86.3683 468.85 86.3266 468.239 86.8862C467.628 87.4457 467.587 88.3946 468.146 89.0055L470.358 86.9792ZM476.924 101.105C477.32 101.833 478.231 102.102 478.959 101.706C479.687 101.31 479.956 100.399 479.56 99.6712L476.924 101.105ZM484.815 114.482C484.671 113.666 483.894 113.121 483.078 113.264C482.262 113.407 481.717 114.185 481.86 115.001L484.815 114.482ZM482.3 130.216C482.258 131.043 482.894 131.749 483.721 131.791C484.548 131.834 485.254 131.198 485.296 130.37L482.3 130.216ZM483.635 146.183C483.766 145.365 483.209 144.596 482.391 144.465C481.573 144.334 480.804 144.891 480.673 145.709L483.635 146.183ZM477.366 160.899C477.145 161.698 477.613 162.524 478.411 162.745C479.21 162.966 480.036 162.498 480.257 161.7L477.366 160.899ZM475.158 176.775C475.467 176.006 475.094 175.132 474.325 174.824C473.556 174.515 472.683 174.888 472.374 175.656L475.158 176.775ZM465.789 189.771C465.399 190.502 465.675 191.41 466.406 191.8C467.137 192.19 468.046 191.914 468.436 191.183L465.789 189.771ZM460.244 204.796C460.707 204.109 460.524 203.177 459.837 202.714C459.149 202.252 458.217 202.435 457.755 203.122L460.244 204.796ZM448.449 215.639C447.925 216.28 448.02 217.225 448.661 217.749C449.303 218.274 450.248 218.179 450.772 217.537L448.449 215.639ZM440.216 229.379C440.793 228.784 440.777 227.834 440.182 227.258C439.587 226.681 438.638 226.696 438.061 227.291L440.216 229.379ZM426.764 238.094C426.144 238.644 426.088 239.593 426.638 240.212C427.188 240.831 428.136 240.888 428.756 240.338L426.764 238.094ZM416.555 250.449C417.209 249.941 417.329 248.999 416.822 248.344C416.314 247.689 415.372 247.57 414.717 248.077L416.555 250.449ZM402.054 257.286C401.37 257.754 401.195 258.687 401.663 259.371C402.13 260.055 403.063 260.231 403.747 259.763L402.054 257.286ZM390.445 268.337C391.152 267.907 391.377 266.984 390.947 266.276C390.516 265.568 389.594 265.344 388.886 265.774L390.445 268.337ZM375.303 273.592C374.576 273.988 374.307 274.899 374.704 275.627C375.1 276.354 376.011 276.623 376.739 276.226L375.303 273.592ZM362.714 283.479C363.458 283.114 363.765 282.216 363.4 281.472C363.035 280.728 362.136 280.421 361.392 280.787L362.714 283.479ZM347.143 287.445C346.386 287.782 346.045 288.668 346.382 289.425C346.719 290.182 347.605 290.522 348.362 290.186L347.143 287.445ZM333.831 296.368C334.598 296.055 334.966 295.18 334.653 294.413C334.34 293.646 333.464 293.277 332.697 293.59L333.831 296.368ZM2.05759 4.39405C4.55047 4.29826 7.07136 4.20998 9.61894 4.1293L9.52397 1.1308C6.96978 1.2117 4.44215 1.30021 1.94241 1.39626L2.05759 4.39405ZM24.9471 3.7422C29.9771 3.64637 35.094 3.57862 40.2888 3.53959L40.2662 0.539676C35.0602 0.578791 29.9318 0.646687 24.8899 0.742745L24.9471 3.7422ZM55.6425 3.50773C60.6913 3.52415 65.8018 3.56681 70.9664 3.63625L71.0067 0.636518C65.8321 0.56695 60.7114 0.5242 55.6523 0.507742L55.6425 3.50773ZM86.2628 3.91717C91.327 4.03484 96.4343 4.17778 101.578 4.34645L101.676 1.34806C96.5231 1.17908 91.4063 1.03587 86.3325 0.917983L86.2628 3.91717ZM116.904 4.92142C121.987 5.13606 127.099 5.37566 132.232 5.64066L132.386 2.64464C127.244 2.37917 122.123 2.13913 117.031 1.92409L116.904 4.92142ZM147.527 6.50231C152.61 6.81269 157.708 7.14803 162.815 7.50875L163.026 4.51621C157.91 4.15481 152.802 3.81884 147.71 3.50789L147.527 6.50231ZM178.102 8.66317C183.192 9.07263 188.285 9.5076 193.375 9.96847L193.646 6.9807C188.546 6.5189 183.443 6.08308 178.342 5.67283L178.102 8.66317ZM208.627 11.4291C213.72 11.9437 218.804 12.4849 223.873 13.0529L224.207 10.0716C219.127 9.50233 214.032 8.96002 208.929 8.44427L208.627 11.4291ZM239.097 14.8468C244.184 15.4761 249.249 16.1332 254.286 16.8187L254.69 13.8461C249.641 13.159 244.564 12.5002 239.465 11.8695L239.097 14.8468ZM269.433 18.9792C274.524 19.7397 279.579 20.5302 284.592 21.3512L285.077 18.3907C280.05 17.5673 274.981 16.7746 269.876 16.0122L269.433 18.9792ZM299.705 23.9439C304.778 24.8549 309.798 25.7988 314.758 26.776L315.338 23.8326C310.361 22.852 305.324 21.905 300.235 20.9912L299.705 23.9439ZM329.74 29.8706C334.782 30.9622 339.75 32.0907 344.637 33.2566L345.333 30.3385C340.425 29.1674 335.436 28.0343 330.374 26.9385L329.74 29.8706ZM359.481 36.9822C364.507 38.3093 369.431 39.6797 374.241 41.0939L375.087 38.2157C370.249 36.7932 365.299 35.4154 360.247 34.0816L359.481 36.9822ZM388.855 45.6432C393.813 47.2786 398.624 48.9663 403.278 50.707L404.329 47.8972C399.636 46.1417 394.787 44.441 389.795 42.7942L388.855 45.6432ZM417.441 56.386C422.261 58.4612 426.864 60.6033 431.232 62.8132L432.587 60.1362C428.158 57.8958 423.499 55.7278 418.627 53.6305L417.441 56.386ZM444.527 70.2021C449.073 72.991 453.259 75.8736 457.059 78.8511L458.909 76.4896C455.008 73.433 450.726 70.4858 446.096 67.6451L444.527 70.2021ZM468.146 89.0055C471.715 92.9024 474.655 96.935 476.924 101.105L479.56 99.6712C477.159 95.2589 474.069 91.0302 470.358 86.9792L468.146 89.0055ZM481.86 115.001C482.284 117.418 482.5 119.882 482.5 122.395H485.5C485.5 119.709 485.269 117.071 484.815 114.482L481.86 115.001ZM482.5 122.395C482.5 125.038 482.432 127.645 482.3 130.216L485.296 130.37C485.431 127.747 485.5 125.089 485.5 122.395H482.5ZM480.673 145.709C479.836 150.931 478.725 155.993 477.366 160.899L480.257 161.7C481.645 156.687 482.78 151.516 483.635 146.183L480.673 145.709ZM472.374 175.656C470.417 180.529 468.211 185.232 465.789 189.771L468.436 191.183C470.907 186.552 473.159 181.751 475.158 176.775L472.374 175.656ZM457.755 203.122C454.838 207.461 451.724 211.632 448.449 215.639L450.772 217.537C454.103 213.462 457.272 209.217 460.244 204.796L457.755 203.122ZM438.061 227.291C434.415 231.056 430.637 234.655 426.764 238.094L428.756 240.338C432.681 236.852 436.514 233.201 440.216 229.379L438.061 227.291ZM414.717 248.077C410.543 251.311 406.308 254.379 402.054 257.286L403.747 259.763C408.046 256.825 412.33 253.722 416.555 250.449L414.717 248.077ZM388.886 265.774C384.311 268.556 379.766 271.16 375.303 273.592L376.739 276.226C381.24 273.773 385.826 271.146 390.445 268.337L388.886 265.774ZM361.392 280.787C356.423 283.227 351.645 285.442 347.143 287.445L348.362 290.186C352.895 288.169 357.707 285.938 362.714 283.479L361.392 280.787ZM332.697 293.59C330.09 294.654 327.664 295.622 325.448 296.5L326.552 299.289C328.774 298.409 331.21 297.437 333.831 296.368L332.697 293.59ZM1.94241 1.39626C1.11459 1.42807 0.469298 2.12494 0.501106 2.95275C0.532915 3.78057 1.22978 4.42586 2.05759 4.39405L1.94241 1.39626ZM324.623 297.299C324.294 298.059 324.644 298.942 325.404 299.271L337.794 304.632C338.555 304.961 339.438 304.611 339.767 303.851C340.096 303.091 339.746 302.208 338.986 301.879L327.972 297.113L332.737 286.1C333.066 285.34 332.717 284.457 331.956 284.128C331.196 283.799 330.313 284.149 329.984 284.909L324.623 297.299ZM9.61894 4.1293C10.4469 4.10308 11.0969 3.41058 11.0707 2.58257C11.0445 1.75456 10.352 1.10458 9.52397 1.1308L9.61894 4.1293ZM24.8899 0.742745C24.0616 0.758525 23.403 1.44277 23.4188 2.27105C23.4345 3.09932 24.1188 3.75798 24.9471 3.7422L24.8899 0.742745ZM40.2888 3.53959C41.1172 3.53337 41.7837 2.85677 41.7775 2.02836C41.7712 1.19996 41.0946 0.533452 40.2662 0.539676L40.2888 3.53959ZM55.6523 0.507742C54.8238 0.505047 54.1501 1.17443 54.1474 2.00285C54.1447 2.83128 54.8141 3.50503 55.6425 3.50773L55.6523 0.507742ZM70.9664 3.63625C71.7947 3.64738 72.4753 2.9849 72.4864 2.15655C72.4975 1.32819 71.8351 0.647655 71.0067 0.636518L70.9664 3.63625ZM86.3325 0.917983C85.5043 0.898739 84.8173 1.55453 84.798 2.38273C84.7788 3.21094 85.4346 3.89793 86.2628 3.91717L86.3325 0.917983ZM101.578 4.34645C102.406 4.3736 103.099 3.7244 103.126 2.89642C103.153 2.06843 102.504 1.37521 101.676 1.34806L101.578 4.34645ZM117.031 1.92409C116.203 1.88914 115.504 2.53178 115.469 3.35947C115.434 4.18716 116.076 4.88647 116.904 4.92142L117.031 1.92409ZM132.232 5.64066C133.059 5.68337 133.764 5.04731 133.807 4.21998C133.85 3.39266 133.214 2.68736 132.386 2.64464L132.232 5.64066ZM147.71 3.50789C146.883 3.4574 146.172 4.08679 146.121 4.91368C146.071 5.74056 146.7 6.45182 147.527 6.50231L147.71 3.50789ZM162.815 7.50875C163.641 7.56712 164.358 6.94454 164.417 6.11817C164.475 5.2918 163.852 4.57458 163.026 4.51621L162.815 7.50875ZM178.342 5.67283C177.517 5.60641 176.793 6.22197 176.727 7.04773C176.661 7.87349 177.276 8.59675 178.102 8.66317L178.342 5.67283ZM193.375 9.96847C194.2 10.0432 194.929 9.43491 195.004 8.60986C195.079 7.7848 194.471 7.05541 193.646 6.9807L193.375 9.96847ZM208.929 8.44427C208.105 8.36098 207.369 8.96163 207.286 9.78586C207.202 10.6101 207.803 11.3458 208.627 11.4291L208.929 8.44427ZM223.873 13.0529C224.696 13.1452 225.438 12.5526 225.53 11.7293C225.623 10.9061 225.03 10.1639 224.207 10.0716L223.873 13.0529ZM239.465 11.8695C238.643 11.7678 237.894 12.3519 237.792 13.174C237.691 13.9962 238.275 14.7451 239.097 14.8468L239.465 11.8695ZM254.286 16.8187C255.107 16.9304 255.863 16.3555 255.974 15.5347C256.086 14.7138 255.511 13.9578 254.69 13.8461L254.286 16.8187ZM269.876 16.0122C269.057 15.8898 268.293 16.4548 268.171 17.2741C268.048 18.0934 268.613 18.8569 269.433 18.9792L269.876 16.0122ZM284.592 21.3512C285.409 21.4851 286.181 20.9309 286.315 20.1134C286.449 19.2959 285.894 18.5246 285.077 18.3907L284.592 21.3512ZM300.235 20.9912C299.42 20.8448 298.64 21.3871 298.494 22.2024C298.347 23.0178 298.889 23.7975 299.705 23.9439L300.235 20.9912ZM314.758 26.776C315.571 26.9362 316.36 26.4071 316.52 25.5943C316.68 24.7815 316.151 23.9928 315.338 23.8326L314.758 26.776ZM330.374 26.9385C329.565 26.7632 328.766 27.2775 328.591 28.0872C328.416 28.8968 328.93 29.6953 329.74 29.8706L330.374 26.9385ZM344.637 33.2566C345.443 33.4488 346.252 32.9514 346.444 32.1456C346.636 31.3398 346.139 30.5307 345.333 30.3385L344.637 33.2566ZM360.247 34.0816C359.446 33.8701 358.625 34.3479 358.414 35.1489C358.202 35.9499 358.68 36.7707 359.481 36.9822L360.247 34.0816ZM374.241 41.0939C375.036 41.3275 375.87 40.8726 376.103 40.0778C376.337 39.2831 375.882 38.4493 375.087 38.2157L374.241 41.0939ZM389.795 42.7942C389.008 42.5347 388.16 42.9621 387.9 43.7488C387.641 44.5356 388.068 45.3837 388.855 45.6432L389.795 42.7942ZM403.278 50.707C404.053 50.9973 404.918 50.6036 405.208 49.8277C405.498 49.0518 405.105 48.1874 404.329 47.8972L403.278 50.707ZM418.627 53.6305C417.866 53.303 416.984 53.6542 416.656 54.4151C416.329 55.176 416.68 56.0584 417.441 56.386L418.627 53.6305ZM431.232 62.8132C431.972 63.1871 432.874 62.891 433.248 62.1518C433.622 61.4126 433.326 60.5102 432.587 60.1362L431.232 62.8132ZM446.096 67.6451C445.39 67.2118 444.467 67.433 444.033 68.1391C443.6 68.8452 443.821 69.7688 444.527 70.2021L446.096 67.6451ZM457.059 78.8511C457.711 79.362 458.654 79.2476 459.165 78.5955C459.676 77.9434 459.561 77.0006 458.909 76.4896L457.059 78.8511ZM470.358 86.9792C469.799 86.3683 468.85 86.3266 468.239 86.8862C467.628 87.4457 467.587 88.3946 468.146 89.0055L470.358 86.9792ZM476.924 101.105C477.32 101.833 478.231 102.102 478.959 101.706C479.687 101.31 479.956 100.399 479.56 99.6712L476.924 101.105ZM484.815 114.482C484.671 113.666 483.894 113.121 483.078 113.264C482.262 113.407 481.717 114.185 481.86 115.001L484.815 114.482ZM482.3 130.216C482.258 131.043 482.894 131.749 483.721 131.791C484.548 131.834 485.254 131.198 485.296 130.37L482.3 130.216ZM483.635 146.183C483.766 145.365 483.209 144.596 482.391 144.465C481.573 144.334 480.804 144.891 480.673 145.709L483.635 146.183ZM477.366 160.899C477.145 161.698 477.613 162.524 478.411 162.745C479.21 162.966 480.036 162.498 480.257 161.7L477.366 160.899ZM475.158 176.775C475.467 176.006 475.094 175.132 474.325 174.824C473.556 174.515 472.683 174.888 472.374 175.656L475.158 176.775ZM465.789 189.771C465.399 190.502 465.675 191.41 466.406 191.8C467.137 192.19 468.046 191.914 468.436 191.183L465.789 189.771ZM460.244 204.796C460.707 204.109 460.524 203.177 459.837 202.714C459.149 202.252 458.217 202.435 457.755 203.122L460.244 204.796ZM448.449 215.639C447.925 216.28 448.02 217.225 448.661 217.749C449.303 218.274 450.248 218.179 450.772 217.537L448.449 215.639ZM440.216 229.379C440.793 228.784 440.777 227.834 440.182 227.258C439.587 226.681 438.638 226.696 438.061 227.291L440.216 229.379ZM426.764 238.094C426.144 238.644 426.088 239.593 426.638 240.212C427.188 240.831 428.136 240.888 428.756 240.338L426.764 238.094ZM416.555 250.449C417.209 249.941 417.329 248.999 416.822 248.344C416.314 247.689 415.372 247.57 414.717 248.077L416.555 250.449ZM402.054 257.286C401.37 257.754 401.195 258.687 401.663 259.371C402.13 260.055 403.063 260.231 403.747 259.763L402.054 257.286ZM390.445 268.337C391.152 267.907 391.377 266.984 390.947 266.276C390.516 265.568 389.594 265.344 388.886 265.774L390.445 268.337ZM375.303 273.592C374.576 273.988 374.307 274.899 374.704 275.627C375.1 276.354 376.011 276.623 376.739 276.226L375.303 273.592ZM362.714 283.479C363.458 283.114 363.765 282.216 363.4 281.472C363.035 280.728 362.136 280.421 361.392 280.787L362.714 283.479ZM347.143 287.445C346.386 287.782 346.045 288.668 346.382 289.425C346.719 290.182 347.605 290.522 348.362 290.186L347.143 287.445ZM333.831 296.368C334.598 296.055 334.966 295.18 334.653 294.413C334.34 293.646 333.464 293.277 332.697 293.59L333.831 296.368ZM2.05759 4.39405C4.55047 4.29826 7.07136 4.20998 9.61894 4.1293L9.52397 1.1308C6.96978 1.2117 4.44215 1.30021 1.94241 1.39626L2.05759 4.39405ZM24.9471 3.7422C29.9771 3.64637 35.094 3.57862 40.2888 3.53959L40.2662 0.539676C35.0602 0.578791 29.9318 0.646687 24.8899 0.742745L24.9471 3.7422ZM55.6425 3.50773C60.6913 3.52415 65.8018 3.56681 70.9664 3.63625L71.0067 0.636518C65.8321 0.56695 60.7114 0.5242 55.6523 0.507742L55.6425 3.50773ZM86.2628 3.91717C91.327 4.03484 96.4343 4.17778 101.578 4.34645L101.676 1.34806C96.5231 1.17908 91.4063 1.03587 86.3325 0.917983L86.2628 3.91717ZM116.904 4.92142C121.987 5.13606 127.099 5.37566 132.232 5.64066L132.386 2.64464C127.244 2.37917 122.123 2.13913 117.031 1.92409L116.904 4.92142ZM147.527 6.50231C152.61 6.81269 157.708 7.14803 162.815 7.50875L163.026 4.51621C157.91 4.15481 152.802 3.81884 147.71 3.50789L147.527 6.50231ZM178.102 8.66317C183.192 9.07263 188.285 9.5076 193.375 9.96847L193.646 6.9807C188.546 6.5189 183.443 6.08308 178.342 5.67283L178.102 8.66317ZM208.627 11.4291C213.72 11.9437 218.804 12.4849 223.873 13.0529L224.207 10.0716C219.127 9.50233 214.032 8.96002 208.929 8.44427L208.627 11.4291ZM239.097 14.8468C244.184 15.4761 249.249 16.1332 254.286 16.8187L254.69 13.8461C249.641 13.159 244.564 12.5002 239.465 11.8695L239.097 14.8468ZM269.433 18.9792C274.524 19.7397 279.579 20.5302 284.592 21.3512L285.077 18.3907C280.05 17.5673 274.981 16.7746 269.876 16.0122L269.433 18.9792ZM299.705 23.9439C304.778 24.8549 309.798 25.7988 314.758 26.776L315.338 23.8326C310.361 22.852 305.324 21.905 300.235 20.9912L299.705 23.9439ZM329.74 29.8706C334.782 30.9622 339.75 32.0907 344.637 33.2566L345.333 30.3385C340.425 29.1674 335.436 28.0343 330.374 26.9385L329.74 29.8706ZM359.481 36.9822C364.507 38.3093 369.431 39.6797 374.241 41.0939L375.087 38.2157C370.249 36.7932 365.299 35.4154 360.247 34.0816L359.481 36.9822ZM388.855 45.6432C393.813 47.2786 398.624 48.9663 403.278 50.707L404.329 47.8972C399.636 46.1417 394.787 44.441 389.795 42.7942L388.855 45.6432ZM417.441 56.386C422.261 58.4612 426.864 60.6033 431.232 62.8132L432.587 60.1362C428.158 57.8958 423.499 55.7278 418.627 53.6305L417.441 56.386ZM444.527 70.2021C449.073 72.991 453.259 75.8736 457.059 78.8511L458.909 76.4896C455.008 73.433 450.726 70.4858 446.096 67.6451L444.527 70.2021ZM468.146 89.0055C471.715 92.9024 474.655 96.935 476.924 101.105L479.56 99.6712C477.159 95.2589 474.069 91.0302 470.358 86.9792L468.146 89.0055ZM481.86 115.001C482.284 117.418 482.5 119.882 482.5 122.395H485.5C485.5 119.709 485.269 117.071 484.815 114.482L481.86 115.001ZM482.5 122.395C482.5 125.038 482.432 127.645 482.3 130.216L485.296 130.37C485.431 127.747 485.5 125.089 485.5 122.395H482.5ZM480.673 145.709C479.836 150.931 478.725 155.993 477.366 160.899L480.257 161.7C481.645 156.687 482.78 151.516 483.635 146.183L480.673 145.709ZM472.374 175.656C470.417 180.529 468.211 185.232 465.789 189.771L468.436 191.183C470.907 186.552 473.159 181.751 475.158 176.775L472.374 175.656ZM457.755 203.122C454.838 207.461 451.724 211.632 448.449 215.639L450.772 217.537C454.103 213.462 457.272 209.217 460.244 204.796L457.755 203.122ZM438.061 227.291C434.415 231.056 430.637 234.655 426.764 238.094L428.756 240.338C432.681 236.852 436.514 233.201 440.216 229.379L438.061 227.291ZM414.717 248.077C410.543 251.311 406.308 254.379 402.054 257.286L403.747 259.763C408.046 256.825 412.33 253.722 416.555 250.449L414.717 248.077ZM388.886 265.774C384.311 268.556 379.766 271.16 375.303 273.592L376.739 276.226C381.24 273.773 385.826 271.146 390.445 268.337L388.886 265.774ZM361.392 280.787C356.423 283.227 351.645 285.442 347.143 287.445L348.362 290.186C352.895 288.169 357.707 285.938 362.714 283.479L361.392 280.787ZM332.697 293.59C330.09 294.654 327.664 295.622 325.448 296.5L326.552 299.289C328.774 298.409 331.21 297.437 333.831 296.368L332.697 293.59Z" fill="#00D1FF"/>
</svg>
